<?xml version="1.0" encoding="UTF-8"?>
<svg version="1.1" xmlns="http://www.w3.org/2000/svg" width="500" height="500">
<path d="M0 0 C165 0 330 0 500 0 C500 165 500 330 500 500 C335 500 170 500 0 500 C0 335 0 170 0 0 Z " fill="#FDFEFE" transform="translate(0,0)"/>
<path d="M0 0 C4.18228683 0.57123918 7.12463253 2.99713787 10.375 5.5 C10.95209717 5.9419873 11.52919434 6.38397461 12.1237793 6.83935547 C16.82709927 10.58149562 20.17707086 14.66350382 23 20 C24.134375 19.525625 25.26875 19.05125 26.4375 18.5625 C34.40586402 15.59882777 42.59719415 15.85864439 51 16 C50.31911019 18.91985181 49.41898766 21.35122304 48 24 C49.175625 24.2165625 49.175625 24.2165625 50.375 24.4375 C53 25 53 25 55 26 C55.67441131 27.6635479 56.3400321 29.33066942 57 31 C57.556875 31.66 58.11375 32.32 58.6875 33 C60 35 60 35 59.75927734 37.3046875 C58.92509065 40.26591616 57.75057264 42.49146195 56.1640625 45.125 C55.30941406 46.55585938 55.30941406 46.55585938 54.4375 48.015625 C53.839375 49.00046875 53.24125 49.9853125 52.625 51 C52.03460938 51.98484375 51.44421875 52.9696875 50.8359375 53.984375 C49.23042838 56.66022354 47.615966 59.3304595 46 62 C44.99927891 63.6662338 43.99906614 65.33277337 43 67 C35.70470883 66.54219433 29.11425422 65.08345931 22.125 63 C15.06830564 60.97406684 8.50685013 59.3318358 1.14453125 59.10546875 C-1 59 -1 59 -4 58 C-4 57.34 -4 56.68 -4 56 C-5.21558594 55.88785156 -6.43117187 55.77570313 -7.68359375 55.66015625 C-13.88529616 54.9710782 -19.95545197 53.69555894 -26.0625 52.4375 C-27.79016602 52.08655273 -27.79016602 52.08655273 -29.55273438 51.72851562 C-32.36922846 51.15586745 -35.18493382 50.57961941 -38 50 C-36.28379115 46.44499595 -34.18987081 43.28480622 -32 40 C-31.68160156 39.36320312 -31.36320313 38.72640625 -31.03515625 38.0703125 C-27.0055027 30.01100541 -21.06990191 23.55975365 -15 17 C-13.80686236 15.65079794 -12.6189359 14.29696049 -11.4375 12.9375 C-7.65629649 8.59710442 -3.82988975 4.29743474 0 0 Z " fill="#F4C831" transform="translate(223,98)"/>
<path d="M0 0 C7.6868333 5.74289033 13.12945242 12.03972362 15.55078125 21.453125 C16.82325414 31.92853312 14.72781748 40.1586775 8.73828125 48.765625 C3.67684177 55.04180996 -2.48433197 58.96329006 -10.44921875 60.453125 C-21.784716 61.47344418 -30.80090787 60.48170187 -39.76171875 53.203125 C-47.38406251 45.99654545 -50.43372611 38.20148708 -50.94921875 27.765625 C-50.82602629 18.13608102 -46.69292841 10.61113511 -40.44921875 3.453125 C-29.03889682 -5.78263879 -12.69228098 -8.01617746 0 0 Z " fill="#75B6E4" transform="translate(359.44921875,104.546875)"/>
<path d="M0 0 C5.33848672 -0.09894543 10.67643869 -0.17150414 16.015625 -0.21972656 C17.8314748 -0.23983061 19.64725995 -0.26711835 21.46289062 -0.30175781 C24.07438105 -0.35033039 26.68501498 -0.37298027 29.296875 -0.390625 C30.10743347 -0.41127014 30.91799194 -0.43191528 31.75311279 -0.45318604 C35.38385926 -0.45462845 37.53808424 -0.33893001 40.50878906 1.84082031 C42 4 42 4 42.5625 6.9375 C41.50785236 12.67947047 36.41998387 15.59029816 32 19 C32.51949219 19.23074219 33.03898437 19.46148437 33.57421875 19.69921875 C39.9157678 22.66485999 45.13853002 26.37343794 48 33 C48.74545583 36.95091587 48.84482175 40.3647579 46.96875 43.99609375 C43.27363152 48.76895512 38.78944258 51.45365122 33 53 C27.13402813 53.47575771 21.31641458 53.37908647 15.4375 53.25 C13.84051722 53.22990197 12.24350998 53.21165705 10.64648438 53.1953125 C6.76371119 53.15158265 2.88212978 53.0827407 -1 53 C0.32 52.34 1.64 51.68 3 51 C3.07596188 44.219067 3.1285625 37.4382434 3.16479492 30.65698242 C3.17989676 28.34932352 3.20037969 26.04169339 3.22631836 23.73413086 C3.26263975 20.42033801 3.27971236 17.10692408 3.29296875 13.79296875 C3.30845261 12.7585112 3.32393646 11.72405365 3.33988953 10.6582489 C3.34011612 9.6974794 3.34034271 8.7367099 3.34057617 7.74682617 C3.34723801 6.90077316 3.35389984 6.05472015 3.36076355 5.18302917 C2.92364455 2.53796284 2.04559682 1.66463188 0 0 Z " fill="#D1AD3F" transform="translate(91,175)"/>
<path d="M0 0 C4.18228683 0.57123918 7.12463253 2.99713787 10.375 5.5 C10.95209717 5.9419873 11.52919434 6.38397461 12.1237793 6.83935547 C16.82709927 10.58149562 20.17707086 14.66350382 23 20 C21.64836353 22.82510948 20.13650699 25.41303103 18.390625 28.01171875 C17.62878906 29.14963867 17.62878906 29.14963867 16.8515625 30.31054688 C16.32304687 31.09494141 15.79453125 31.87933594 15.25 32.6875 C14.48042969 33.83508789 14.48042969 33.83508789 13.6953125 35.00585938 C12.66033589 36.54922274 11.62453068 38.09203078 10.58789062 39.63427734 C8.04918346 43.4165763 5.52448372 47.20819838 3 51 C2.01 50.67 1.02 50.34 0 50 C0 49.34 0 48.68 0 48 C-0.66 48 -1.32 48 -2 48 C-2 47.34 -2 46.68 -2 46 C-2.66 46 -3.32 46 -4 46 C-4.33 46.33 -4.66 46.66 -5 47 C-3.68 48.32 -2.36 49.64 -1 51 C-1.495 51.99 -1.495 51.99 -2 53 C-3.485 52.505 -3.485 52.505 -5 52 C-5.99 52.66 -6.98 53.32 -8 54 C-11.625 53.75 -11.625 53.75 -15 53 C-15.33 52.34 -15.66 51.68 -16 51 C-18.86434404 50.36087308 -21.66879881 49.83055456 -24.5625 49.375 C-25.36880859 49.2409375 -26.17511719 49.106875 -27.00585938 48.96875 C-29.0026124 48.63792701 -31.0011567 48.31794962 -33 48 C-33.625 45.6875 -33.625 45.6875 -34 43 C-33.34 42.01 -32.68 41.02 -32 40 C-31.68160156 39.36320312 -31.36320313 38.72640625 -31.03515625 38.0703125 C-27.0055027 30.01100541 -21.06990191 23.55975365 -15 17 C-13.80686236 15.65079794 -12.6189359 14.29696049 -11.4375 12.9375 C-7.65629649 8.59710442 -3.82988975 4.29743474 0 0 Z " fill="#FCD032" transform="translate(223,98)"/>
<path d="M0 0 C0.66 0 1.32 0 2 0 C0.88786867 2.8231026 -0.26609473 5.53218947 -1.625 8.25 C-3.70896697 13.93354628 -3.98391048 19.13830055 -1.6875 24.8125 C1.6239091 31.06738386 4.61524989 33.14885268 11 36 C11.33 35.34 11.66 34.68 12 34 C11.01 34 10.02 34 9 34 C9 32.68 9 31.36 9 30 C8.34 30 7.68 30 7 30 C6.67 30.66 6.34 31.32 6 32 C4 30 4 30 3.8125 27.4375 C4 25 4 25 5 24 C6.66617115 23.95936168 8.33388095 23.957279 10 24 C13 29.75 13 29.75 13 32 C13.99 31.67 14.98 31.34 16 31 C16.66 31.33 17.32 31.66 18 32 C18 31.34 18 30.68 18 30 C16.35 29.67 14.7 29.34 13 29 C13.33 28.34 13.66 27.68 14 27 C15.93278504 26.69734684 17.87173338 26.43383693 19.8125 26.1875 C28.20788417 24.37128002 32.99247518 19.44423425 37.93701172 12.70117188 C40.22078303 9.04629855 40.96154888 5.25846154 41 1 C42.32 1.33 43.64 1.66 45 2 C45.33 1.34 45.66 0.68 46 0 C47.91489362 5.61702128 47.91489362 5.61702128 48.5 8.25 C48.91501249 10.23877444 48.91501249 10.23877444 51 12 C51.11961919 14.84460257 51.13987852 17.59794278 51.0625 20.4375 C50.83932588 26.29644109 50.83932588 26.29644109 52 32 C53.32 31.34 54.64 30.68 56 30 C55.699956 37.20105606 52.60728995 41.66820714 47.36328125 46.51171875 C38.61179847 53.30482776 28.79190103 54.01462317 18 53 C9.05158338 50.9793898 2.1631775 45.5792991 -2.875 38 C-7.32356413 30.12139821 -8.13181876 21.92139496 -7 13 C-5.35599214 8.55381756 -3.41825637 3.41825637 0 0 Z " fill="#1D4E79" transform="translate(316,112)"/>
<path d="M0 0 C4.44934392 3.81372336 8.15915685 7.07350165 11.9375 11.375 C12.70964844 12.24898437 13.48179687 13.12296875 14.27734375 14.0234375 C14.84582031 14.67570312 15.41429687 15.32796875 16 16 C23.36815121 13.08208171 30.69148844 10.06404952 38 7 C36.38412153 12.62119424 33.69621029 17.08968528 30.5703125 21.96484375 C29.32192544 23.94849494 29.32192544 23.94849494 28 27 C29.09498811 30.03302015 30.84455362 32.12952736 33.0390625 34.453125 C33.61914062 35.071875 34.19921875 35.690625 34.796875 36.328125 C35.70179688 37.27945313 35.70179688 37.27945313 36.625 38.25 C37.23601562 38.8996875 37.84703125 39.549375 38.4765625 40.21875 C39.98028074 41.81645063 41.48815737 43.40999149 43 45 C38.95336479 46.3488784 35.63497879 45.36605375 31.5625 44.5625 C30.04357709 44.26896975 28.52405849 43.97850202 27.00390625 43.69140625 C26.33174072 43.55935791 25.6595752 43.42730957 24.96704102 43.29125977 C22.67193814 42.90235132 22.67193814 42.90235132 19 43 C18.56131592 43.81005493 18.56131592 43.81005493 18.11376953 44.63647461 C16.78992607 47.07332331 15.45759307 49.50542587 14.125 51.9375 C13.66480469 52.78763672 13.20460937 53.63777344 12.73046875 54.51367188 C12.28574219 55.32255859 11.84101563 56.13144531 11.3828125 56.96484375 C10.97434082 57.7137085 10.56586914 58.46257324 10.14501953 59.23413086 C9 61 9 61 7 62 C5.515 50.615 5.515 50.615 4 39 C-2.8195014 37.7650472 -2.8195014 37.7650472 -9.64208984 36.54736328 C-10.91366943 36.31122314 -10.91366943 36.31122314 -12.2109375 36.0703125 C-13.08024902 35.91320801 -13.94956055 35.75610352 -14.84521484 35.59423828 C-17 35 -17 35 -19 33 C-15.87797994 31.49373883 -12.75191601 29.99606757 -9.625 28.5 C-8.73554687 28.07074219 -7.84609375 27.64148438 -6.9296875 27.19921875 C-5.65351562 26.59013672 -5.65351562 26.59013672 -4.3515625 25.96875 C-3.56604004 25.59169922 -2.78051758 25.21464844 -1.97119141 24.82617188 C0 24 0 24 2 24 C1.34 16.08 0.68 8.16 0 0 Z " fill="#FFD334" transform="translate(130,105)"/>
<path d="M0 0 C1.11181641 0.00644531 2.22363281 0.01289063 3.36914062 0.01953125 C5.09487305 0.04466797 5.09487305 0.04466797 6.85546875 0.0703125 C8.02529297 0.07933594 9.19511719 0.08835938 10.40039062 0.09765625 C13.28145928 0.12117518 16.16210864 0.15404398 19.04296875 0.1953125 C20.7337381 3.38701043 21.38241851 5.82834275 21.66796875 9.4453125 C21.74273437 10.33734375 21.8175 11.229375 21.89453125 12.1484375 C21.94351563 12.82390625 21.9925 13.499375 22.04296875 14.1953125 C21.60726562 13.79699219 21.1715625 13.39867187 20.72265625 12.98828125 C14.38503286 7.35026564 9.48202445 4.49728608 0.80078125 4.79296875 C-3.66305946 5.44420897 -6.83291967 6.91805819 -9.95703125 10.1953125 C-13.81301897 16.81302116 -14.05440702 24.81170928 -12.23046875 32.09765625 C-10.41515911 37.59524031 -8.57983147 41.49707232 -3.95703125 45.1953125 C-3.25578125 45.7728125 -2.55453125 46.3503125 -1.83203125 46.9453125 C1.55867269 49.20578179 4.57189445 49.38126291 8.54296875 49.4453125 C9.9815625 49.48398437 9.9815625 49.48398437 11.44921875 49.5234375 C14.02317259 49.40822209 14.02317259 49.40822209 15.67797852 48.01464844 C18.52792221 44.21608281 17.50970127 38.75558485 17.48046875 34.1953125 C17.50044922 33.08929688 17.52042969 31.98328125 17.54101562 30.84375 C17.54037109 29.78414063 17.53972656 28.72453125 17.5390625 27.6328125 C17.54091553 26.66214844 17.54276855 25.69148438 17.54467773 24.69140625 C17.27989162 22.03472915 17.27989162 22.03472915 15.01196289 20.48046875 C14.36219482 20.05636719 13.71242676 19.63226563 13.04296875 19.1953125 C13.04296875 18.5353125 13.04296875 17.8753125 13.04296875 17.1953125 C18.98296875 17.1953125 24.92296875 17.1953125 31.04296875 17.1953125 C31.04296875 17.8553125 31.04296875 18.5153125 31.04296875 19.1953125 C30.05296875 19.5253125 29.06296875 19.8553125 28.04296875 20.1953125 C27.96878829 24.55522123 27.91435331 28.91479529 27.87817383 33.27514648 C27.86309107 34.75828449 27.84262186 36.24137794 27.81665039 37.72436523 C27.78024259 39.85671995 27.76323802 41.98848485 27.75 44.12109375 C27.72643433 46.04562378 27.72643433 46.04562378 27.70239258 48.0090332 C27.75770224 51.18309585 27.75770224 51.18309585 29.5612793 53.13745117 C30.05023682 53.48654541 30.53919434 53.83563965 31.04296875 54.1953125 C26.56311723 54.34556552 22.0846654 54.45340206 17.60302734 54.52490234 C16.08421227 54.55475857 14.56556471 54.59546085 13.04736328 54.64794922 C1.94246018 55.02177764 -7.09980788 54.09794572 -15.94580078 46.48339844 C-21.77552343 40.55007813 -24.16468893 32.84709553 -24.51953125 24.6953125 C-24.25268137 17.3870691 -22.34575507 11.48155475 -17.01953125 6.31640625 C-11.64434309 2.0915898 -6.92206894 -0.07099558 0 0 Z " fill="#17C2DF" transform="translate(209.95703125,245.8046875)"/>
<path d="M0 0 C5.94 0 11.88 0 18 0 C17.01 0.99 16.02 1.98 15 3 C14.42052719 5.96243726 14.42052719 5.96243726 14.3125 9.1875 C14.209375 11.105625 14.10625 13.02375 14 15 C21.92 15 29.84 15 38 15 C37.53442511 5.22154311 37.53442511 5.22154311 36 1 C35.01 0.67 34.02 0.34 33 0 C38.94 0 44.88 0 51 0 C50.01 1.32 49.02 2.64 48 4 C47.5459701 6.13538979 47.5459701 6.13538979 47.59594727 8.41381836 C47.57692101 9.71052711 47.57692101 9.71052711 47.55751038 11.03343201 C47.56044601 11.95954788 47.56338165 12.88566376 47.56640625 13.83984375 C47.5611644 14.79895157 47.55592255 15.75805939 47.55052185 16.74623108 C47.5441041 18.77278679 47.54543544 20.79937977 47.55395508 22.82592773 C47.56246029 25.92303989 47.53370767 29.01830463 47.50195312 32.11523438 C47.50034086 34.08593695 47.50091913 36.05664278 47.50390625 38.02734375 C47.49267227 38.95143539 47.48143829 39.87552704 47.46986389 40.82762146 C47.47924484 41.69524612 47.48862579 42.56287079 47.49829102 43.45678711 C47.49845718 44.21527451 47.49862335 44.9737619 47.49879456 45.75523376 C47.993082 48.74220306 47.993082 48.74220306 52 53 C45.73 53 39.46 53 33 53 C34.32 51.68 35.64 50.36 37 49 C37.64210552 45.62078606 37.64210552 45.62078606 37.609375 41.828125 C37.62591125 41.1457074 37.64244751 40.46328979 37.65948486 39.76019287 C37.70789839 37.59003646 37.72931865 35.42058028 37.75 33.25 C37.77816562 31.77470448 37.80809389 30.29944149 37.83984375 28.82421875 C37.9169635 25.21582604 37.95753375 21.60963105 38 18 C30.08 18 22.16 18 14 18 C14.05109664 22.34321402 14.11406994 26.68286823 14.20751953 31.02490234 C14.23570088 32.50102196 14.25692966 33.97729169 14.27099609 35.45361328 C14.29246698 37.57923057 14.33913043 39.70304879 14.390625 41.828125 C14.41157227 43.1059082 14.43251953 44.38369141 14.45410156 45.70019531 C14.75970939 49.53599508 14.75970939 49.53599508 19 53 C12.73 53 6.46 53 0 53 C1.98 50.525 1.98 50.525 4 48 C4.59086881 45.76518413 4.59086881 45.76518413 4.51757812 43.45678711 C4.53018677 42.58916245 4.54279541 41.72153778 4.55578613 40.82762146 C4.54768921 39.90352982 4.53959229 38.97943817 4.53125 38.02734375 C4.5350769 37.06727921 4.53890381 36.10721466 4.54284668 35.11805725 C4.54556297 33.09326119 4.53822166 31.06842988 4.52148438 29.04370117 C4.50004742 25.94435534 4.52130789 22.84732137 4.546875 19.74804688 C4.54423213 17.77864072 4.53910801 15.809236 4.53125 13.83984375 C4.53934692 12.91372787 4.54744385 11.987612 4.55578613 11.03343201 C4.54317749 10.1689595 4.53056885 9.304487 4.51757812 8.41381836 C4.51439575 7.65612656 4.51121338 6.89843475 4.50793457 6.11778259 C4.03677156 3.339853 4.03677156 3.339853 0 0 Z " fill="#0FC0DF" transform="translate(369,247)"/>
<path d="M0 0 C5.61 0 11.22 0 17 0 C17.15299561 1.9339563 17.15299561 1.9339563 17.30908203 3.90698242 C17.88551738 9.05028421 19.31853473 13.63120789 21.0546875 18.48828125 C21.50800949 19.78671211 21.50800949 19.78671211 21.9704895 21.1113739 C22.606398 22.92556778 23.24699705 24.7381238 23.89208984 26.54907227 C24.87699975 29.31812224 25.84377947 32.09303332 26.80859375 34.86914062 C27.43122845 36.63839536 28.05489062 38.40728891 28.6796875 40.17578125 C28.9672995 41.00185379 29.2549115 41.82792633 29.55123901 42.67903137 C29.82807526 43.4505101 30.1049115 44.22198883 30.39013672 45.0168457 C30.7486824 46.02869682 30.7486824 46.02869682 31.11447144 47.06098938 C32.13301829 49.47380515 32.13301829 49.47380515 35 53 C29.06 53 23.12 53 17 53 C17.66 52.01 18.32 51.02 19 50 C19.49354177 44.76845724 18.85039842 41.42303203 16 37 C11.13981216 31.99686546 4.58587554 30.59793352 -2 29 C-2.1340625 29.72445312 -2.268125 30.44890625 -2.40625 31.1953125 C-2.96328444 33.82656728 -3.68205596 36.31483517 -4.5 38.875 C-5.74549303 42.9334846 -6.54177044 46.78428809 -7 51 C-5.68 51.66 -4.36 52.32 -3 53 C-8.61 53 -14.22 53 -20 53 C-18.68 52.34 -17.36 51.68 -16 51 C-14.8530617 48.84531051 -14.8530617 48.84531051 -14 46 C-13.47602833 44.61122935 -12.94602825 43.22472645 -12.41186523 41.83984375 C-10.76796925 37.49767688 -9.13079064 33.15297921 -7.49536133 28.80761719 C-6.78989762 26.93528102 -6.08286489 25.06353529 -5.37426758 23.19238281 C-4.34867248 20.48380259 -3.32810907 17.77337358 -2.30859375 15.0625 C-1.99192245 14.22904053 -1.67525116 13.39558105 -1.34898376 12.53686523 C0.08344404 8.71267116 1.38455441 5.05855878 2 1 C1.34 0.67 0.68 0.34 0 0 Z " fill="#D1AC3D" transform="translate(378,175)"/>
<path d="M0 0 C5.61 0 11.22 0 17 0 C17 2.31 17 4.62 17 7 C18.62506039 14.02752178 21.22918884 20.7528201 24 27.3984375 C25.16676878 30.43385942 26.08210889 33.50560444 27 36.625 C29.65945007 45.53696878 29.65945007 45.53696878 35 53 C28.73 53 22.46 53 16 53 C16.99 52.01 17.98 51.02 19 50 C19.79222168 44.8065468 19.4110849 42.00654992 16.375 37.6875 C11.36105193 31.71517491 5.37781772 30.39358779 -2 29 C-2.20496094 29.68707031 -2.40992188 30.37414062 -2.62109375 31.08203125 C-2.89050781 31.98308594 -3.15992188 32.88414062 -3.4375 33.8125 C-3.70433594 34.70582031 -3.97117187 35.59914062 -4.24609375 36.51953125 C-4.80387873 38.35473055 -5.39344575 40.18033726 -6 42 C-6.23235588 44.21825028 -6.23235588 44.21825028 -6.25 46.5625 C-6.27578125 47.34753906 -6.3015625 48.13257813 -6.328125 48.94140625 C-6.21984375 49.62074219 -6.1115625 50.30007812 -6 51 C-5.01 51.66 -4.02 52.32 -3 53 C-8.61 53 -14.22 53 -20 53 C-18.35 51.02 -16.7 49.04 -15 47 C-13.80136081 44.89796487 -13.80136081 44.89796487 -13.04296875 42.8125 C-12.73866943 42.04172119 -12.43437012 41.27094238 -12.12084961 40.47680664 C-11.81284424 39.65946045 -11.50483887 38.84211426 -11.1875 38 C-10.85564697 37.14075928 -10.52379395 36.28151855 -10.18188477 35.39624023 C-9.4777689 33.56190697 -8.77993386 31.72515239 -8.08789062 29.88623047 C-6.96553688 26.90856755 -5.81878637 23.94093565 -4.671875 20.97265625 C-3.92531666 19.00327298 -3.18048059 17.03323582 -2.4375 15.0625 C-2.07873779 14.13373047 -1.71997559 13.20496094 -1.3503418 12.24804688 C-1.02718994 11.37341797 -0.70403809 10.49878906 -0.37109375 9.59765625 C-0.08161865 8.82945557 0.20785645 8.06125488 0.50610352 7.26977539 C1.25661965 4.5492253 1.25661965 4.5492253 0 0 Z " fill="#D1AC3D" transform="translate(268,175)"/>
<path d="M0 0 C5.61 0 11.22 0 17 0 C16.67 1.65 16.34 3.3 16 5 C16.38166219 7.28209649 16.38166219 7.28209649 17.21582031 9.54321289 C17.50652405 10.41083755 17.79722778 11.27846222 18.09674072 12.17237854 C18.42059753 13.09647018 18.74445435 14.02056183 19.078125 14.97265625 C19.4053656 15.93272079 19.7326062 16.89278534 20.06976318 17.88194275 C20.76354593 19.90871652 21.46325638 21.93346951 22.16845703 23.95629883 C23.24563453 27.04996233 24.30193922 30.15016732 25.35546875 33.25195312 C26.03262655 35.22177661 26.71097249 37.19119213 27.390625 39.16015625 C27.70638489 40.08627213 28.02214478 41.012388 28.34747314 41.96656799 C28.80244171 43.26327675 28.80244171 43.26327675 29.26660156 44.58618164 C29.52942932 45.34387344 29.79225708 46.10156525 30.06304932 46.88221741 C31.1055814 49.45330905 31.1055814 49.45330905 34 53 C28.06 53 22.12 53 16 53 C16.99 51.68 17.98 50.36 19 49 C19.58280397 45.17014534 19.19936553 43.37572734 17.375 39.9375 C11.95326946 33.23167539 6.56101463 30.19456018 -2 29 C-6.10240144 39.27602596 -6.10240144 39.27602596 -7 50 C-6.01 50.99 -5.02 51.98 -4 53 C-9.28 53 -14.56 53 -20 53 C-18.02 50.525 -18.02 50.525 -16 48 C-14.91122785 45.96426321 -14.91122785 45.96426321 -14.140625 43.875 C-13.83318359 43.09600342 -13.52574219 42.31700684 -13.20898438 41.5144043 C-12.89251953 40.68465088 -12.57605469 39.85489746 -12.25 39 C-11.74436523 37.69832886 -11.74436523 37.69832886 -11.22851562 36.37036133 C-10.51526149 34.53037002 -9.80571192 32.68893899 -9.09960938 30.84619141 C-7.99037449 27.97508565 -6.8500913 25.11793747 -5.703125 22.26171875 C-4.96808899 20.40390722 -4.23369491 18.54584157 -3.5 16.6875 C-2.9745459 15.39102539 -2.9745459 15.39102539 -2.43847656 14.06835938 C-2.1184668 13.24529297 -1.79845703 12.42222656 -1.46875 11.57421875 C-1.18451172 10.85838623 -0.90027344 10.14255371 -0.60742188 9.4050293 C0.2856862 6.28227754 0.2856862 6.28227754 0 0 Z " fill="#D1AC3C" transform="translate(159,175)"/>
<path d="M0 0 C3.27036728 -0.14510162 6.53991007 -0.23399373 9.8125 -0.3125 C11.2056543 -0.3753418 11.2056543 -0.3753418 12.62695312 -0.43945312 C15.17003023 -0.48535704 17.4986313 -0.46562148 20 0 C21.73046875 2.1640625 21.73046875 2.1640625 23 5 C25.02103144 7.06829028 27.25980435 8.86206341 29.5 10.6875 C30.08136719 11.17283203 30.66273438 11.65816406 31.26171875 12.15820312 C33.77410339 14.24227505 36.28200632 16.18800421 39 18 C39.1079859 15.56131832 39.18726589 13.12740867 39.25 10.6875 C39.28351563 9.99720703 39.31703125 9.30691406 39.3515625 8.59570312 C39.43881264 6.31006278 39.43881264 6.31006278 39 3 C37.68 2.01 36.36 1.02 35 0 C39.95 0 44.9 0 50 0 C49.01 0.99 48.02 1.98 47 3 C46.54123209 5.07599325 46.54123209 5.07599325 46.59594727 7.39208984 C46.57692101 8.71894302 46.57692101 8.71894302 46.55751038 10.07260132 C46.56044601 11.02575226 46.56338165 11.9789032 46.56640625 12.9609375 C46.5611644 13.94365631 46.55592255 14.92637512 46.55052185 15.93887329 C46.54409649 18.01848404 46.54544527 20.09813111 46.55395508 22.17773438 C46.56244957 25.35613022 46.5337353 28.53272001 46.50195312 31.7109375 C46.50034063 33.73177029 46.50091958 35.75260627 46.50390625 37.7734375 C46.49267227 38.72253998 46.48143829 39.67164246 46.46986389 40.64950562 C46.47924484 41.54037872 46.48862579 42.43125183 46.49829102 43.34912109 C46.49845718 44.12838959 46.49862335 44.90765808 46.49879456 45.71054077 C46.98420836 48.73748102 46.98420836 48.73748102 51 53 C45.72 53 40.44 53 35 53 C36.32 52.34 37.64 51.68 39 51 C40.72223121 39.68642993 40.72223121 39.68642993 37.80322266 29.02001953 C34.63250054 25.49800442 30.8242587 22.87016152 26.88183594 20.27734375 C24.00650641 18.32564109 21.44962522 16.07491305 18.8125 13.8125 C16.09047454 11.54754628 14.36565545 10.12188515 11 9 C11.11806197 14.66014162 11.24229672 20.32010083 11.37231445 25.97998047 C11.41569001 27.90637504 11.45736314 29.83280871 11.49731445 31.75927734 C11.55495362 34.52453408 11.61866616 37.2895935 11.68359375 40.0546875 C11.70030624 40.9193161 11.71701874 41.7839447 11.73423767 42.67477417 C11.72159896 46.97395852 11.72159896 46.97395852 13 51 C13.99 51.66 14.98 52.32 16 53 C10.72 53 5.44 53 0 53 C1.32 51.68 2.64 50.36 4 49 C4.59632472 46.82498803 4.59632472 46.82498803 4.51757812 44.47851562 C4.53018677 43.59079468 4.54279541 42.70307373 4.55578613 41.78845215 C4.54768921 40.83732544 4.53959229 39.88619873 4.53125 38.90625 C4.5350769 37.92257446 4.53890381 36.93889893 4.54284668 35.92541504 C4.54556627 33.84756445 4.53820182 31.76967965 4.52148438 29.69189453 C4.50007584 26.51126789 4.52128488 23.33290013 4.546875 20.15234375 C4.54423173 18.13280751 4.53910678 16.11327268 4.53125 14.09375 C4.53934692 13.14262329 4.54744385 12.19149658 4.55578613 11.21154785 C4.54756809 5.88788942 4.54756809 5.88788942 1.96679688 1.36914062 C1.31775391 0.91732422 0.66871094 0.46550781 0 0 Z " fill="#1CC3DF" transform="translate(129,247)"/>
<path d="M0 0 C6.6 0 13.2 0 20 0 C20.33 1.32 20.66 2.64 21 4 C23.04232873 5.98752047 25.04600148 7.77566969 27.25 9.5625 C27.82363281 10.04396484 28.39726562 10.52542969 28.98828125 11.02148438 C32.17879228 13.66328565 35.37068387 15.97385923 39 18 C38.91299202 15.56077639 38.80613998 13.12521586 38.6875 10.6875 C38.65366211 9.65206055 38.65366211 9.65206055 38.61914062 8.59570312 C38.38725874 4.23210764 38.22799347 3.22799347 35 0 C39.62 0 44.24 0 49 0 C48.01 1.32 47.02 2.64 46 4 C45.5459701 6.13538979 45.5459701 6.13538979 45.59594727 8.41381836 C45.57692101 9.71052711 45.57692101 9.71052711 45.55751038 11.03343201 C45.56044601 11.95954788 45.56338165 12.88566376 45.56640625 13.83984375 C45.5611644 14.79895157 45.55592255 15.75805939 45.55052185 16.74623108 C45.5441041 18.77278679 45.54543544 20.79937977 45.55395508 22.82592773 C45.56246029 25.92303989 45.53370767 29.01830463 45.50195312 32.11523438 C45.50034086 34.08593695 45.50091913 36.05664278 45.50390625 38.02734375 C45.49267227 38.95143539 45.48143829 39.87552704 45.46986389 40.82762146 C45.47924484 41.69524612 45.48862579 42.56287079 45.49829102 43.45678711 C45.49845718 44.21527451 45.49862335 44.9737619 45.49879456 45.75523376 C45.993082 48.74220306 45.993082 48.74220306 50 53 C44.72 53 39.44 53 34 53 C35.32 52.01 36.64 51.02 38 50 C39.86100618 44.29845524 39.34998514 36.77612467 38 31 C35.50946591 27.09898522 32.5629974 24.74556976 28.73388672 22.1875 C26.15679098 20.42250512 23.75196461 18.4559986 21.31689453 16.50195312 C19.51700424 15.0635373 17.69810113 13.65372052 15.87109375 12.25 C13 10 13 10 11 8 C10.97532668 13.80240568 10.95715276 19.60478098 10.94506836 25.40722656 C10.9400319 27.38216687 10.93320249 29.35710343 10.92456055 31.33203125 C10.91246492 34.16667605 10.9067649 37.00127166 10.90234375 39.8359375 C10.89460182 41.16569107 10.89460182 41.16569107 10.88670349 42.52230835 C10.74597908 46.89771239 10.74597908 46.89771239 12 51 C12.99 51.66 13.98 52.32 15 53 C9.72 53 4.44 53 -1 53 C0.32 52.34 1.64 51.68 3 51 C3.0760474 44.37979488 3.12859863 37.75970235 3.16479492 31.13916016 C3.17988395 28.88683869 3.20035755 26.63454661 3.22631836 24.38232422 C3.26269593 21.14543404 3.2797253 17.90893225 3.29296875 14.671875 C3.30845261 13.66445251 3.32393646 12.65703003 3.33988953 11.61907959 C3.34011612 10.67840637 3.34034271 9.73773315 3.34057617 8.76855469 C3.35056892 7.52945343 3.35056892 7.52945343 3.36076355 6.26531982 C3.09832574 3.48288627 3.09832574 3.48288627 0 0 Z " fill="#D1AD3E" transform="translate(306,175)"/>
<path d="M0 0 C1.06992187 0.00644531 2.13984375 0.01289063 3.2421875 0.01953125 C4.35335938 0.03628906 5.46453125 0.05304688 6.609375 0.0703125 C7.73601562 0.07933594 8.86265625 0.08835938 10.0234375 0.09765625 C12.80229865 0.12120592 15.5807289 0.1540957 18.359375 0.1953125 C19.74224713 4.02912873 20.65507673 7.50896715 20.984375 11.5703125 C21.05914062 12.44429688 21.13390625 13.31828125 21.2109375 14.21875 C21.25992188 14.87101562 21.30890625 15.52328125 21.359375 16.1953125 C20.8025 15.4528125 20.245625 14.7103125 19.671875 13.9453125 C16.19603033 9.81187559 12.64256742 6.60416381 7.359375 5.1953125 C0.4911685 4.58065879 0.4911685 4.58065879 -5.640625 7.1953125 C-5.8908407 10.27897121 -5.8908407 10.27897121 -5.640625 13.1953125 C-1.5791646 15.34800848 2.31454786 16.88605739 6.734375 18.1328125 C14.41110883 20.45591967 21.18788267 22.63564879 26.2890625 29.14453125 C28.70850704 33.78032828 28.10730816 38.54522834 26.7265625 43.4375 C24.4093353 48.969619 20.67525378 51.65198651 15.359375 54.1953125 C6.46256934 57.16091439 -4.70643094 55.2756238 -13.640625 53.1953125 C-14.33824037 50.59347662 -15.02400274 47.98947648 -15.703125 45.3828125 C-15.90228516 44.64482422 -16.10144531 43.90683594 -16.30664062 43.14648438 C-17.75390625 37.53515625 -17.75390625 37.53515625 -16.640625 34.1953125 C-16.3003125 34.85917969 -15.96 35.52304687 -15.609375 36.20703125 C-12.33467606 42.17290564 -9.38115231 47.09354178 -2.640625 49.1953125 C4.29791594 49.99682006 10.55197667 50.52697341 16.359375 46.1953125 C17.52280727 43.86844797 17.55833488 42.34809837 17.609375 39.7578125 C17.64804687 38.58412109 17.64804687 38.58412109 17.6875 37.38671875 C17.26669644 34.57635213 16.54790282 33.98051382 14.359375 32.1953125 C11.73712085 31.04452525 11.73712085 31.04452525 8.73828125 30.109375 C7.08795898 29.54863281 7.08795898 29.54863281 5.40429688 28.9765625 C3.08852962 28.20767062 0.7708161 27.44461517 -1.54882812 26.6875 C-2.65033203 26.31109375 -3.75183594 25.9346875 -4.88671875 25.546875 C-6.39770142 25.04921631 -6.39770142 25.04921631 -7.93920898 24.54150391 C-11.74460372 22.64516892 -13.75921457 19.95813337 -15.640625 16.1953125 C-16.11152049 12.7645025 -16.30226762 10.26859597 -14.44140625 7.25 C-10.13252871 2.06198119 -6.88686971 -0.07326457 0 0 Z " fill="#19C2DF" transform="translate(335.640625,245.8046875)"/>
<path d="M0 0 C1.66067137 4.86925247 2.26299506 9.87159632 2 15 C1.525625 14.278125 1.05125 13.55625 0.5625 12.8125 C-3.73337775 8.09751223 -7.99631148 5.30343732 -14.44140625 4.65234375 C-17.6614142 4.62760165 -20.79716104 4.66637094 -24 5 C-25.58272601 6.58272601 -25.34735747 8.38034003 -25.5625 10.5625 C-25.64628906 11.38878906 -25.73007813 12.21507812 -25.81640625 13.06640625 C-25.87699219 13.70449219 -25.93757813 14.34257812 -26 15 C-24.22880197 14.85866501 -22.45804713 14.71176792 -20.6875 14.5625 C-19.70136719 14.48128906 -18.71523437 14.40007812 -17.69921875 14.31640625 C-14.90624401 14.08187441 -14.90624401 14.08187441 -12 13 C-11.34 12.01 -10.68 11.02 -10 10 C-9.49095343 11.87256417 -8.99317545 13.74819341 -8.5 15.625 C-8.08234375 17.19121094 -8.08234375 17.19121094 -7.65625 18.7890625 C-7.00881404 21.95687418 -6.8838708 24.77741467 -7 28 C-7.433125 27.401875 -7.86625 26.80375 -8.3125 26.1875 C-10.32555647 23.57798235 -12.03519645 21.48240178 -15 20 C-16.87056791 19.7724985 -18.74685958 19.59037189 -20.625 19.4375 C-21.62789062 19.35371094 -22.63078125 19.26992188 -23.6640625 19.18359375 C-24.43492188 19.12300781 -25.20578125 19.06242187 -26 19 C-25.89055285 23.45885926 -25.75982334 27.91684156 -25.625 32.375 C-25.5940625 33.64601563 -25.563125 34.91703125 -25.53125 36.2265625 C-25.49257812 37.43828125 -25.45390625 38.65 -25.4140625 39.8984375 C-25.3826416 41.01911621 -25.3512207 42.13979492 -25.31884766 43.29443359 C-25.26588797 46.14710412 -25.26588797 46.14710412 -23 48 C-15.46031269 49.01156491 -8.3658659 48.34495609 -2 44 C-0.25716254 42.31831474 1.24434093 40.60903778 2.7109375 38.68359375 C4.02321374 36.96968145 5.44605117 35.4948806 7 34 C6 40 6 40 1 54 C-19.295 53.505 -19.295 53.505 -40 53 C-38.68 51.68 -37.36 50.36 -36 49 C-35.40367528 46.82498803 -35.40367528 46.82498803 -35.48242188 44.47851562 C-35.46981323 43.59079468 -35.45720459 42.70307373 -35.44421387 41.78845215 C-35.45231079 40.83732544 -35.46040771 39.88619873 -35.46875 38.90625 C-35.4649231 37.92257446 -35.46109619 36.93889893 -35.45715332 35.92541504 C-35.45443373 33.84756445 -35.46179818 31.76967965 -35.47851562 29.69189453 C-35.49992416 26.51126789 -35.47871512 23.33290013 -35.453125 20.15234375 C-35.45576827 18.13280751 -35.46089322 16.11327268 -35.46875 14.09375 C-35.46065308 13.14262329 -35.45255615 12.19149658 -35.44421387 11.21154785 C-35.45243191 5.88788942 -35.45243191 5.88788942 -38.03320312 1.36914062 C-38.68224609 0.91732422 -39.33128906 0.46550781 -40 0 C-34.62501726 -0.16742247 -29.24989076 -0.32800169 -23.87451172 -0.48217773 C-22.04502834 -0.53562295 -20.21559907 -0.59095425 -18.38623047 -0.64819336 C-15.76020984 -0.73003411 -13.13407081 -0.80514096 -10.5078125 -0.87890625 C-9.68693146 -0.90594131 -8.86605042 -0.93297638 -8.02029419 -0.96083069 C-2.22774341 -1.11387171 -2.22774341 -1.11387171 0 0 Z " fill="#14C1DF" transform="translate(119,247)"/>
<path d="M0 0 C3.26460973 1.80412643 4.88929795 2.83394693 7 6 C6.66969315 9.95389532 5.19022863 12.76165207 3.1640625 16.125 C2.30941406 17.55585938 2.30941406 17.55585938 1.4375 19.015625 C0.839375 20.00046875 0.24125 20.9853125 -0.375 22 C-0.96539062 22.98484375 -1.55578125 23.9696875 -2.1640625 24.984375 C-3.76957162 27.66022354 -5.384034 30.3304595 -7 33 C-8.00072109 34.6662338 -9.00093386 36.33277337 -10 38 C-17.29529117 37.54219433 -23.88574578 36.08345931 -30.875 34 C-37.93169436 31.97406684 -44.49314987 30.3318358 -51.85546875 30.10546875 C-54 30 -54 30 -57 29 C-57 28.34 -57 27.68 -57 27 C-58.21558594 26.88785156 -59.43117187 26.77570313 -60.68359375 26.66015625 C-66.88529616 25.9710782 -72.95545197 24.69555894 -79.0625 23.4375 C-80.21427734 23.20353516 -81.36605469 22.96957031 -82.55273438 22.72851562 C-85.36922846 22.15586745 -88.18493382 21.57961941 -91 21 C-89.25 17.125 -89.25 17.125 -87 16 C-86.67 16.66 -86.34 17.32 -86 18 C-84.04003523 18.62311478 -84.04003523 18.62311478 -81.66796875 19 C-80.78689453 19.165 -79.90582031 19.33 -78.99804688 19.5 C-77.60682617 19.7475 -77.60682617 19.7475 -76.1875 20 C-74.36749906 20.32788194 -72.54843799 20.66103414 -70.73046875 21 C-69.91989014 21.144375 -69.10931152 21.28875 -68.27416992 21.4375 C-66 22 -66 22 -63.8293457 23.125 C-63.22566162 23.41375 -62.62197754 23.7025 -62 24 C-61.34 23.67 -60.68 23.34 -60 23 C-61.65 22.34 -63.3 21.68 -65 21 C-60.82412255 19.60804085 -58.86525224 21.17676781 -55 23 C-56.65 21.35 -58.3 19.7 -60 18 C-59.34 18 -58.68 18 -58 18 C-58.495 16.515 -58.495 16.515 -59 15 C-58.34 15 -57.68 15 -57 15 C-57 15.66 -57 16.32 -57 17 C-56.34 17 -55.68 17 -55 17 C-55 17.66 -55 18.32 -55 19 C-54.34 19 -53.68 19 -53 19 C-51.375 20.5 -51.375 20.5 -50 22 C-49.71125 21.195625 -49.4225 20.39125 -49.125 19.5625 C-48 17 -48 17 -46 16 C-45.505 16.99 -45.505 16.99 -45 18 C-42.97536745 18.65213292 -42.97536745 18.65213292 -41 19 C-42.98 19.99 -42.98 19.99 -45 21 C-44.14019531 20.96519531 -43.28039062 20.93039063 -42.39453125 20.89453125 C-34.74901263 20.71944304 -28.03777249 21.37464999 -20.64453125 23.34375 C-17.96884204 24.12042432 -17.96884204 24.12042432 -15 24 C-13.27192266 21.83885208 -13.27192266 21.83885208 -11.6796875 19.00390625 C-11.06222656 17.97072266 -10.44476563 16.93753906 -9.80859375 15.87304688 C-9.17050781 14.78056641 -8.53242188 13.68808594 -7.875 12.5625 C-6.60244511 10.4174449 -5.3290531 8.27288611 -4.0546875 6.12890625 C-3.49249512 5.17056885 -2.93030273 4.21223145 -2.35107422 3.22485352 C-1 1 -1 1 0 0 Z " fill="#D7AC33" transform="translate(276,127)"/>
<path d="M0 0 C1.74120117 0.02030273 1.74120117 0.02030273 3.51757812 0.04101562 C6.36637052 0.0761859 9.21418844 0.12540713 12.0625 0.1875 C13.42775145 4.70787979 14.29355587 8.45085468 14.0625 13.1875 C12.7940625 12.0428125 12.7940625 12.0428125 11.5 10.875 C5.64255479 6.08006811 0.1367684 4.61643054 -7.34765625 4.83203125 C-11.95280503 5.46411049 -14.55794916 7.75867949 -17.6875 11 C-21.44683695 17.57883967 -22.0542412 24.79297248 -20.21484375 32.03125 C-17.43882713 40.39301666 -13.47159118 44.60153145 -5.9375 49.1875 C-0.36336747 51.04554418 5.00525568 50.99381384 10.375 48.5 C13.77177653 46.59942265 15.83419523 44.40616245 18.0625 41.1875 C19.04480498 40.1701127 20.03719597 39.16153883 21.0625 38.1875 C20.40372452 42.5354182 18.78785435 46.16167319 17.0625 50.1875 C16.69985439 51.84803517 16.36049323 53.51415338 16.0625 55.1875 C12.27110154 55.30521717 8.48018265 55.37525198 4.6875 55.4375 C3.09615234 55.48777344 3.09615234 55.48777344 1.47265625 55.5390625 C-8.64663473 55.66322558 -16.69427073 53.25834397 -24.1796875 46.2578125 C-30.14048284 39.23732021 -32.32675519 31.34704992 -32.20703125 22.32421875 C-31.53535714 14.50748957 -28.08556737 9.69327297 -22.23046875 4.6953125 C-14.81044372 -0.18395438 -8.73350082 -0.19363646 0 0 Z " fill="#D1AD3E" transform="translate(225.9375,173.8125)"/>
<path d="M0 0 C5.94 0 11.88 0 18 0 C16.68 1.32 15.36 2.64 14 4 C13.41802944 6.06774812 13.41802944 6.06774812 13.51416016 8.27783203 C13.5080069 9.11194611 13.50185364 9.94606018 13.49551392 10.80545044 C13.50988495 11.69722992 13.52425598 12.5890094 13.5390625 13.5078125 C13.53997894 14.42964325 13.54089539 15.351474 13.5418396 16.30123901 C13.54787354 18.24628867 13.56361334 20.19132912 13.58837891 22.13623047 C13.62495239 25.12111427 13.62939778 28.104759 13.62890625 31.08984375 C13.63873496 32.97917744 13.65039088 34.86850271 13.6640625 36.7578125 C13.66740097 38.10155441 13.66740097 38.10155441 13.67080688 39.47244263 C13.68994644 40.71415726 13.68994644 40.71415726 13.70947266 41.98095703 C13.71709625 42.71057648 13.72471985 43.44019592 13.73257446 44.19192505 C13.8535715 46.25092952 13.8535715 46.25092952 16 48 C22.27721554 49.12728824 27.50069046 48.02448594 32.8828125 44.7109375 C36.61535692 41.69460086 39.32258569 37.9515536 42 34 C43 36 43 36 42.59448242 37.77172852 C42.35060791 38.46709717 42.1067334 39.16246582 41.85546875 39.87890625 C41.59056641 40.63494141 41.32566406 41.39097656 41.05273438 42.16992188 C40.76720703 42.95947266 40.48167969 43.74902344 40.1875 44.5625 C39.77661133 45.75262695 39.77661133 45.75262695 39.35742188 46.96679688 C37.2542289 52.87288555 37.2542289 52.87288555 35 54 C32.29849443 54.01662063 29.62778592 53.9727682 26.9296875 53.87890625 C26.13345978 53.85529526 25.33723206 53.83168427 24.51687622 53.80735779 C21.96940471 53.73067789 19.4222339 53.64667239 16.875 53.5625 C15.14975438 53.50928363 13.42449402 53.4565432 11.69921875 53.40429688 C7.46595478 53.27505693 3.23294618 53.13924581 -1 53 C-0.35023193 52.38068604 0.29953613 51.76137207 0.96899414 51.12329102 C3.82038561 46.73840688 3.55838348 43.15121188 3.49609375 38.02734375 C3.49754898 37.06727921 3.49900421 36.10721466 3.50050354 35.11805725 C3.498847 33.09324094 3.48731322 31.06841173 3.46655273 29.04370117 C3.43756647 25.94460629 3.44595541 22.84721939 3.45898438 19.74804688 C3.4527476 17.77863752 3.44435714 15.80923357 3.43359375 13.83984375 C3.43799721 12.45066994 3.43799721 12.45066994 3.44248962 11.03343201 C3.42980545 10.1689595 3.41712128 9.304487 3.40405273 8.41381836 C3.39864975 7.65612656 3.39324677 6.89843475 3.38768005 6.11778259 C3.06524145 3.46735133 3.06524145 3.46735133 0 0 Z " fill="#13C1DF" transform="translate(248,247)"/>
<path d="M0 0 C1.375 1.75 1.375 1.75 2 4 C1.625 6.75 1.625 6.75 1 9 C-0.9375 8.375 -0.9375 8.375 -3 7 C-3.75 3.875 -3.75 3.875 -4 1 C-4.66 1 -5.32 1 -6 1 C-5.74357696 2.91864771 -5.46926564 4.83490994 -5.1875 6.75 C-5.03667969 7.81734375 -4.88585937 8.8846875 -4.73046875 9.984375 C-3.98679593 13.05451094 -3.07234528 14.66080478 -1 17 C-1.33 17.66 -1.66 18.32 -2 19 C-2.66 18.34 -3.32 17.68 -4 17 C-4.66 17.99 -5.32 18.98 -6 20 C-5.34 20.33 -4.68 20.66 -4 21 C-5.32 21.33 -6.64 21.66 -8 22 C-8 22.66 -8 23.32 -8 24 C-8.66 24 -9.32 24 -10 24 C-10.28875 25.27875 -10.5775 26.5575 -10.875 27.875 C-11.54102483 30.82453855 -11.80202597 31.80202597 -14 34 C-16.625 34.125 -16.625 34.125 -19 34 C-19 35.65 -19 37.3 -19 39 C-17.68 39 -16.36 39 -15 39 C-15 40.32 -15 41.64 -15 43 C-14.01 43 -13.02 43 -12 43 C-12.33 43.99 -12.66 44.98 -13 46 C-19.45795631 42.94689211 -23.37942464 40.2228639 -27 34 C-29.01957574 27.42982179 -28.73225294 21.87027224 -25.5625 15.75 C-25.11003906 14.96109375 -24.65757812 14.1721875 -24.19140625 13.359375 C-22.87288918 11.03916262 -22.87288918 11.03916262 -22.5625 8.37890625 C-21.86233405 5.41778775 -20.96166008 4.79378369 -18.4375 3.1875 C-17.79683594 2.76855469 -17.15617187 2.34960938 -16.49609375 1.91796875 C-16.00238281 1.61503906 -15.50867188 1.31210938 -15 1 C-14.34 1.66 -13.68 2.32 -13 3 C-11.8553125 2.2884375 -11.8553125 2.2884375 -10.6875 1.5625 C-6.73030846 -0.73819276 -4.37248221 -1.45749407 0 0 Z " fill="#CDF3A7" transform="translate(340,103)"/>
<path d="M0 0 C0.66 0 1.32 0 2 0 C0.88786867 2.8231026 -0.26609473 5.53218947 -1.625 8.25 C-3.70896697 13.93354628 -3.98391048 19.13830055 -1.6875 24.8125 C1.54247891 30.91357127 4.52167034 33.54839681 11 36 C13.66561363 36.30291064 15.30466605 36.24576459 17.8125 35.359375 C20.79282879 34.86974956 22.50292361 35.74469051 25.25 36.9375 C26.58804688 37.50791016 26.58804688 37.50791016 27.953125 38.08984375 C28.62859375 38.39019531 29.3040625 38.69054687 30 39 C30 39.66 30 40.32 30 41 C32.31 41 34.62 41 37 41 C36.29186565 45.95694043 34.54556225 49.45443775 31 53 C21.64797389 54.16900326 13.54087931 52.85325234 5.78125 47.45703125 C-1.90322479 41.19189043 -6.29607617 33.79328904 -7.32421875 23.87109375 C-7.77033293 14.83976007 -5.81691217 8.61899405 -1 1 C-0.67 0.67 -0.34 0.34 0 0 Z " fill="#205382" transform="translate(316,112)"/>
<path d="M0 0 C4.46170011 2.32659469 8.15495906 5.22459991 10 10 C10.54557636 14.2109274 10.42689872 17.79934736 9 21.8125 C5.24933925 25.91478519 1.40210811 27.78595076 -4.15625 28.28125 C-7.13235172 28.30959383 -10.03767547 28.28912287 -13 28 C-14 27 -14 27 -14.11352539 24.68334961 C-14.10828857 23.68311768 -14.10305176 22.68288574 -14.09765625 21.65234375 C-14.09443359 20.57275391 -14.09121094 19.49316406 -14.08789062 18.38085938 C-14.07951172 17.24455078 -14.07113281 16.10824219 -14.0625 14.9375 C-14.05798828 13.79732422 -14.05347656 12.65714844 -14.04882812 11.48242188 C-14.03699747 8.65489649 -14.0205141 5.8274736 -14 3 C-12.731853 2.5068422 -11.46198224 2.01811559 -10.19140625 1.53125 C-9.48443604 1.25861328 -8.77746582 0.98597656 -8.04907227 0.70507812 C-5.10064915 -0.30946327 -3.08814413 -0.52564155 0 0 Z " fill="#F6F6F4" transform="translate(119,196)"/>
<path d="M0 0 C6.27 0 12.54 0 19 0 C17.68 1.32 16.36 2.64 15 4 C14.40433908 6.12693451 14.40433908 6.12693451 14.48242188 8.41381836 C14.46981323 9.27829086 14.45720459 10.14276337 14.44421387 11.03343201 C14.45231079 11.95954788 14.46040771 12.88566376 14.46875 13.83984375 C14.4649231 14.79895157 14.46109619 15.75805939 14.45715332 16.74623108 C14.45443373 18.77280732 14.46179817 20.79941863 14.47851562 22.82592773 C14.49990101 25.92316279 14.47872749 29.01807201 14.453125 32.11523438 C14.45576873 34.08594261 14.46089463 36.0566494 14.46875 38.02734375 C14.46065308 38.95143539 14.45255615 39.87552704 14.44421387 40.82762146 C14.45682251 41.69524612 14.46943115 42.56287079 14.48242188 43.45678711 C14.48560425 44.21527451 14.48878662 44.9737619 14.49206543 45.75523376 C14.99589947 48.74134316 14.99589947 48.74134316 19 53 C12.73 53 6.46 53 0 53 C1.32 52.34 2.64 51.68 4 51 C4.02529589 44.34310718 4.04284396 37.6862267 4.05493164 31.02929688 C4.05996926 28.76334164 4.06679952 26.49738967 4.07543945 24.23144531 C4.08752996 20.97980953 4.09323392 17.72821661 4.09765625 14.4765625 C4.10539818 12.94994492 4.10539818 12.94994492 4.11329651 11.39248657 C4.11337204 10.45166229 4.11344757 9.51083801 4.11352539 8.54150391 C4.11685631 7.29574081 4.11685631 7.29574081 4.12025452 6.02481079 C4.12909182 3.93035036 4.12909182 3.93035036 3 2 C2.01 1.34 1.02 0.68 0 0 Z " fill="#11C1DF" transform="translate(293,247)"/>
<path d="M0 0 C2.8260673 2.94893979 3.71750658 5.81549511 4.15405273 9.85595703 C3.86722363 13.84792721 1.38588651 16.2984791 -1.1875 19.1875 C-1.68314453 19.77724609 -2.17878906 20.36699219 -2.68945312 20.97460938 C-3.66201575 22.12960779 -4.64496822 23.2759503 -5.63891602 24.41259766 C-6.84909131 25.82399851 -7.9817255 27.30106 -9.1015625 28.78515625 C-11.04640151 31.05413509 -12.48306042 32.05253707 -15.1875 33.25 C-17.79491302 34.33294828 -17.79491302 34.33294828 -20 36 C-21.97398582 36 -23.94809349 35.99714973 -25.921875 35.96875 C-28.37115342 36.00558125 -30.62682678 36.40670669 -33 37 C-33 36.01 -33 35.02 -33 34 C-33.99 34 -34.98 34 -36 34 C-36 32.68 -36 31.36 -36 30 C-36.66 30 -37.32 30 -38 30 C-38.33 30.66 -38.66 31.32 -39 32 C-41 30 -41 30 -41.1875 27.4375 C-41 25 -41 25 -40 24 C-38.33382885 23.95936168 -36.66611905 23.957279 -35 24 C-32 29.75 -32 29.75 -32 32 C-31.01 31.67 -30.02 31.34 -29 31 C-28.34 31.33 -27.68 31.66 -27 32 C-27 31.34 -27 30.68 -27 30 C-28.65 29.67 -30.3 29.34 -32 29 C-31.67 28.34 -31.34 27.68 -31 27 C-29.06721496 26.69734684 -27.12826662 26.43383693 -25.1875 26.1875 C-16.79211583 24.37128002 -12.00752482 19.44423425 -7.06298828 12.70117188 C-4.77921697 9.04629855 -4.03845112 5.25846154 -4 1 C-2.68 1.33 -1.36 1.66 0 2 C0 1.34 0 0.68 0 0 Z " fill="#246EB2" transform="translate(361,112)"/>
<path d="M0 0 C4.31921083 1.50444422 7.90132024 3.7735251 11.625 6.375 C12.19734375 6.76171875 12.7696875 7.1484375 13.359375 7.546875 C17.12420627 10.15599063 20.41657164 12.52042948 21.5 17.125 C21.88573402 19.40123363 21.88573402 19.40123363 25 21 C24.67 21.66 24.34 22.32 24 23 C23.01 22.67 22.02 22.34 21 22 C20.01 22.66 19.02 23.32 18 24 C14.375 23.75 14.375 23.75 11 23 C10.67 22.34 10.34 21.68 10 21 C7.13565596 20.36087308 4.33120119 19.83055456 1.4375 19.375 C0.63119141 19.2409375 -0.17511719 19.106875 -1.00585938 18.96875 C-3.0026124 18.63792701 -5.0011567 18.31794962 -7 18 C-7.625 15.6875 -7.625 15.6875 -8 13 C-7.34 12.01 -6.68 11.02 -6 10 C-5.71125 9.401875 -5.4225 8.80375 -5.125 8.1875 C-3.64037734 5.30073371 -1.82700818 2.679612 0 0 Z " fill="#FBCF33" transform="translate(197,128)"/>
<path d="M0 0 C2.64 0.99 5.28 1.98 8 3 C8 4.65 8 6.3 8 8 C7.34 7.67 6.68 7.34 6 7 C5.65219482 7.58491211 5.30438965 8.16982422 4.94604492 8.77246094 C3.36220275 11.43304139 1.77488947 14.09153459 0.1875 16.75 C-0.35970703 17.67039063 -0.90691406 18.59078125 -1.47070312 19.5390625 C-2.00244141 20.42851562 -2.53417969 21.31796875 -3.08203125 22.234375 C-3.81256714 23.45979004 -3.81256714 23.45979004 -4.55786133 24.70996094 C-5.93747725 26.90071721 -7.41593024 28.95365307 -9 31 C-10.72926874 30.68806536 -12.45841044 30.37542638 -14.1875 30.0625 C-15.15042969 29.88847656 -16.11335938 29.71445313 -17.10546875 29.53515625 C-18.8397088 29.21452078 -20.56890534 28.85972197 -22.28125 28.4375 C-26.29187347 27.79211232 -30.25816281 27.89590064 -34.3125 27.9375 C-35.14845703 27.94201172 -35.98441406 27.94652344 -36.84570312 27.95117188 C-38.89716649 27.96289452 -40.94859273 27.98082797 -43 28 C-36.5110058 21.5110058 -22.68044327 22.34389734 -14 22 C-13.71125 21.195625 -13.4225 20.39125 -13.125 19.5625 C-12 17 -12 17 -10 16 C-9.814375 15.1028125 -9.814375 15.1028125 -9.625 14.1875 C-8.80156303 11.30547061 -7.09617094 10.09617094 -5 8 C-4.835 7.34 -4.67 6.68 -4.5 6 C-3.79658395 3.18633581 -2.11010201 1.90589859 0 0 Z " fill="#FBCF30" transform="translate(270,121)"/>
<path d="M0 0 C8.55536131 1.16597769 14.88421463 6.03386882 20.26953125 12.55859375 C25.8905422 20.48891393 27.06068435 28.40507376 26 38 C25.24002445 40.89659254 24.28127943 43.27728122 23 46 C22.67 44.68 22.34 43.36 22 42 C20.515 42.495 20.515 42.495 19 43 C16.10021256 38.65031885 16.94054572 34.28921351 17.16601562 29.24804688 C17.27858198 24.78809017 17.20917117 22.38973835 14 19 C13.64984951 17.33678518 13.31802943 15.66965451 13 14 C11.5409901 10.16050027 10.74292333 8.41991319 7.125 6.375 C6.09375 5.92125 5.0625 5.4675 4 5 C2.30140333 3.70758949 0.62390477 2.38509525 -1 1 C-0.67 0.67 -0.34 0.34 0 0 Z " fill="#6ECB1A" transform="translate(349,101)"/>
<path d="M0 0 C0.495 0.99 0.495 0.99 1 2 C-0.11450513 4.24713229 -1.27672066 6.35345025 -2.5625 8.5 C-2.92730469 9.12277832 -3.29210937 9.74555664 -3.66796875 10.38720703 C-4.7700676 12.26337618 -5.88338332 14.13244228 -7 16 C-7.92619141 17.55847656 -7.92619141 17.55847656 -8.87109375 19.1484375 C-10.23874435 21.43769438 -11.61414227 23.72173388 -13 26 C-20.31797242 25.3626991 -26.95069212 23.78865921 -33.98242188 21.72851562 C-39.17149827 20.27794252 -43.61000913 19.75921003 -49 20 C-49 19.01 -49 18.02 -49 17 C-49.66 16.34 -50.32 15.68 -51 15 C-46.38 15 -41.76 15 -37 15 C-39.64 14.67 -42.28 14.34 -45 14 C-45 13.67 -45 13.34 -45 13 C-34.78739713 12.64603302 -25.89369653 13.15386812 -16 16 C-16.33 16.66 -16.66 17.32 -17 18 C-20.63 17.67 -24.26 17.34 -28 17 C-26.411875 17.28875 -24.82375 17.5775 -23.1875 17.875 C-19.70993945 18.50728374 -18.00440021 18.99706653 -15 21 C-10.78052145 15.13267776 -6.8390982 9.21606012 -3.26171875 2.93359375 C-2 1 -2 1 0 0 Z " fill="#DFAF2F" transform="translate(277,137)"/>
<path d="M0 0 C0.66 0 1.32 0 2 0 C2 0.66 2 1.32 2 2 C2.66 2 3.32 2 4 2 C4 2.66 4 3.32 4 4 C4.66 4 5.32 4 6 4 C7.625 5.5 7.625 5.5 9 7 C9.28875 6.195625 9.5775 5.39125 9.875 4.5625 C11 2 11 2 13 1 C13.495 1.99 13.495 1.99 14 3 C16.02463255 3.65213292 16.02463255 3.65213292 18 4 C16.02 4.99 16.02 4.99 14 6 C14.85980469 5.96519531 15.71960938 5.93039063 16.60546875 5.89453125 C24.22214058 5.72010365 30.8974096 6.3613971 38.2578125 8.34375 C41.17842202 9.15516276 41.17842202 9.15516276 45 9 C45 9.66 45 10.32 45 11 C36.66969147 10.14700544 36.66969147 10.14700544 33.4375 9.4375 C29.93455179 8.80876571 26.55674783 8.93971614 23 9 C24.32 9.66 25.64 10.32 27 11 C23.7 11 20.4 11 17 11 C17 11.33 17 11.66 17 12 C16.195625 12.12375 15.39125 12.2475 14.5625 12.375 C13.716875 12.58125 12.87125 12.7875 12 13 C11.67 13.66 11.34 14.32 11 15 C8.03 14.67 5.06 14.34 2 14 C2 13.34 2 12.68 2 12 C0.78441406 11.88785156 -0.43117187 11.77570313 -1.68359375 11.66015625 C-7.88529616 10.9710782 -13.95545197 9.69555894 -20.0625 8.4375 C-21.21427734 8.20353516 -22.36605469 7.96957031 -23.55273438 7.72851562 C-26.36922846 7.15586745 -29.18493382 6.57961941 -32 6 C-30.25 2.125 -30.25 2.125 -28 1 C-27.67 1.66 -27.34 2.32 -27 3 C-25.04003523 3.62311478 -25.04003523 3.62311478 -22.66796875 4 C-21.78689453 4.165 -20.90582031 4.33 -19.99804688 4.5 C-18.60682617 4.7475 -18.60682617 4.7475 -17.1875 5 C-15.36749906 5.32788194 -13.54843799 5.66103414 -11.73046875 6 C-10.91989014 6.144375 -10.10931152 6.28875 -9.27416992 6.4375 C-7 7 -7 7 -4.8293457 8.125 C-4.22566162 8.41375 -3.62197754 8.7025 -3 9 C-2.34 8.67 -1.68 8.34 -1 8 C-2.65 7.34 -4.3 6.68 -6 6 C-1.82412255 4.60804085 0.13474776 6.17676781 4 8 C1.525 5.525 1.525 5.525 -1 3 C-0.34 3 0.32 3 1 3 C0.505 1.515 0.505 1.515 0 0 Z " fill="#D1A633" transform="translate(217,142)"/>
<path d="M0 0 C3.58724724 1.33240612 6.91649289 2.70939472 10 5 C10 6.32 10 7.64 10 9 C9.01 9 8.02 9 7 9 C6.90525391 9.85271484 6.90525391 9.85271484 6.80859375 10.72265625 C5.88902091 16.52080501 4.23086783 19.4479119 -0.1640625 23.3046875 C-1.99631232 24.99659478 -3.21384093 26.70595747 -4.625 28.75 C-8.65981327 33.68267006 -15.01874146 34.06820156 -21 35 C-19.68 35.66 -18.36 36.32 -17 37 C-17 37.66 -17 38.32 -17 39 C-19.3125 39.25 -19.3125 39.25 -22 39 C-23.9375 37.375 -23.9375 37.375 -25 35 C-24.1875 31.75 -24.1875 31.75 -23 29 C-22.33613281 28.89042969 -21.67226563 28.78085938 -20.98828125 28.66796875 C-12.65627925 27.17185744 -8.2452794 25.09471951 -3.29296875 18.10546875 C0.24469882 12.34473516 0.26651961 6.52973048 0 0 Z " fill="#559CE3" transform="translate(351,105)"/>
<path d="M0 0 C4.98287932 0.39081406 8.65022018 1.55987961 13 4 C13 4.66 13 5.32 13 6 C15.31 6 17.62 6 20 6 C19.29186565 10.95694043 17.54556225 14.45443775 14 18 C11.625 18.375 11.625 18.375 9 18 C7 16.1875 7 16.1875 5 14 C4.113125 13.566875 3.22625 13.13375 2.3125 12.6875 C0 11 0 11 -0.8125 7.3125 C-0.874375 6.219375 -0.93625 5.12625 -1 4 C-2.32 3.67 -3.64 3.34 -5 3 C-4.360625 2.690625 -3.72125 2.38125 -3.0625 2.0625 C-1.06389179 1.1654837 -1.06389179 1.1654837 0 0 Z " fill="#71CF1C" transform="translate(333,147)"/>
<path d="M0 0 C1.25554687 -0.01417969 2.51109375 -0.02835938 3.8046875 -0.04296875 C7.125 0.1875 7.125 0.1875 10.125 2.1875 C10.75 4.4375 10.75 4.4375 10.125 7.1875 C6.30202396 11.67583176 1.63973134 14.31457238 -3.875 16.1875 C-5.195 16.1875 -6.515 16.1875 -7.875 16.1875 C-7.90185095 13.70826199 -7.92176547 11.2293116 -7.9375 8.75 C-7.95006836 7.68942383 -7.95006836 7.68942383 -7.96289062 6.60742188 C-7.97153588 4.80056441 -7.92720011 2.99362397 -7.875 1.1875 C-5.94921745 -0.73828255 -2.55464592 0.01306056 0 0 Z " fill="#F2F1F0" transform="translate(112.875,178.8125)"/>
<path d="M0 0 C0.103125 1.2375 0.20625 2.475 0.3125 3.75 C0.73801682 7.2792866 1.48112592 9.37160966 4 12 C3.67 12.66 3.34 13.32 3 14 C2.34 13.34 1.68 12.68 1 12 C0.01 13.485 0.01 13.485 -1 15 C-0.34 15.33 0.32 15.66 1 16 C-1.13359119 17.29539465 -2.47607754 18.03274515 -5 17.875 C-7.77817069 16.65955032 -9.15231609 15.42110306 -11 13 C-12.05590483 9.12834896 -12.37482524 6.9370631 -10.875 3.1875 C-7.7158954 -0.49812203 -4.62235831 -1.71198456 0 0 Z " fill="#DFF7D0" transform="translate(335,108)"/>
<path d="M0 0 C4.31921083 1.50444422 7.90132024 3.7735251 11.625 6.375 C12.19734375 6.76171875 12.7696875 7.1484375 13.359375 7.546875 C16.48213263 9.71101866 19.03230007 11.72050012 21 15 C21 15.66 21 16.32 21 17 C17.10534564 16.59003638 13.88063175 15.59332526 10.3125 14.0625 C4.99017689 11.83473918 -0.30926043 10.82223614 -6 10 C-4.28564986 6.44774296 -2.22257977 3.25978366 0 0 Z " fill="#E1B634" transform="translate(197,128)"/>
<path d="M0 0 C0.66 0 1.32 0 2 0 C2.66 2.31 3.32 4.62 4 7 C6.64 7.66 9.28 8.32 12 9 C12 9.66 12 10.32 12 11 C12.66 11 13.32 11 14 11 C13.67 12.32 13.34 13.64 13 15 C11.35 15 9.7 15 8 15 C8 16.65 8 18.3 8 20 C9.32 20 10.64 20 12 20 C12 21.32 12 22.64 12 24 C12.99 24 13.98 24 15 24 C14.67 24.99 14.34 25.98 14 27 C7.54204369 23.94689211 3.62057536 21.2228639 0 15 C-0.93505844 12.08238094 -1.13521931 9.43057322 -1.125 6.375 C-1.12757813 5.59898438 -1.13015625 4.82296875 -1.1328125 4.0234375 C-1 2 -1 2 0 0 Z " fill="#A3E567" transform="translate(313,122)"/>
<path d="M0 0 C2.72500248 4.08750372 4.07254018 8.444168 5.6875 13.0625 C6.02072266 13.98611328 6.35394531 14.90972656 6.69726562 15.86132812 C7.00728516 16.74369141 7.31730469 17.62605469 7.63671875 18.53515625 C7.92248779 19.343479 8.20825684 20.15180176 8.50268555 20.98461914 C9 23 9 23 8 25 C7.32453125 24.65066406 6.6490625 24.30132812 5.953125 23.94140625 C5.06109375 23.48636719 4.1690625 23.03132813 3.25 22.5625 C1.92742187 21.88380859 1.92742187 21.88380859 0.578125 21.19140625 C-1.64198566 20.16544602 -3.61444619 19.48491397 -6 19 C-5.52877252 12.0886636 -2.79363994 6.27795839 0 0 Z " fill="#EBE8E0" transform="translate(165,181)"/>
<path d="M0 0 C0.66 0 1.32 0 2 0 C3.20235238 3.26556587 4.38427591 6.53815915 5.5625 9.8125 C5.90474609 10.74126953 6.24699219 11.67003906 6.59960938 12.62695312 C6.91865234 13.51962891 7.23769531 14.41230469 7.56640625 15.33203125 C7.86490479 16.15421143 8.16340332 16.9763916 8.47094727 17.82348633 C9 20 9 20 8 23 C7.24074219 22.72285156 6.48148437 22.44570312 5.69921875 22.16015625 C4.70535156 21.79792969 3.71148437 21.43570313 2.6875 21.0625 C1.70136719 20.70285156 0.71523438 20.34320313 -0.30078125 19.97265625 C-2.1920563 19.29114035 -4.09284329 18.6357189 -6 18 C-4.23536928 11.89262558 -2.30442525 5.92566493 0 0 Z " fill="#EBE9E2" transform="translate(384,182)"/>
<path d="M0 0 C3.43209549 1.71604775 3.88641701 5.7875659 5.0625 9.25 C5.33126953 10.01441406 5.60003906 10.77882812 5.87695312 11.56640625 C7.18766252 15.35144734 8.35734768 19.03301037 9 23 C8.38125 22.731875 7.7625 22.46375 7.125 22.1875 C2.82005607 20.5516213 -1.58031552 19.28728674 -6 18 C-5.41347648 13.51006131 -4.2356462 9.77456816 -2.4375 5.625 C-1.98246094 4.56539062 -1.52742188 3.50578125 -1.05859375 2.4140625 C-0.70925781 1.61742187 -0.35992187 0.82078125 0 0 Z " fill="#EBE9E2" transform="translate(274,182)"/>
<path d="M0 0 C0.66 0 1.32 0 2 0 C1.41608518 3.94341267 0.21548343 6.71973021 -1.8359375 10.125 C-2.40570313 11.07890625 -2.97546875 12.0328125 -3.5625 13.015625 C-4.160625 14.00046875 -4.75875 14.9853125 -5.375 16 C-5.96539062 16.98484375 -6.55578125 17.9696875 -7.1640625 18.984375 C-8.76957162 21.66022354 -10.384034 24.3304595 -12 27 C-13.00072109 28.6662338 -14.00093386 30.33277337 -15 32 C-23.05422399 31.56368207 -30.40741822 29.70341791 -38.125 27.4375 C-39.27226562 27.10814453 -40.41953125 26.77878906 -41.6015625 26.43945312 C-44.40334858 25.63393963 -47.20262355 24.82067033 -50 24 C-50 23.67 -50 23.34 -50 23 C-42.39785348 23.3678458 -35.58322179 25.08585928 -28.33447266 27.2722168 C-24.44924296 28.42251001 -21.1031391 29.31940604 -17 29 C-16.69449219 28.41476563 -16.38898438 27.82953125 -16.07421875 27.2265625 C-12.65284357 20.80786991 -9.00256898 14.54241563 -5.25 8.3125 C-4.76619873 7.49797363 -4.28239746 6.68344727 -3.78393555 5.84423828 C-3.32414307 5.08739746 -2.86435059 4.33055664 -2.390625 3.55078125 C-1.97844727 2.86669189 -1.56626953 2.18260254 -1.14160156 1.4777832 C-0.76487305 0.99011475 -0.38814453 0.50244629 0 0 Z " fill="#9B331E" transform="translate(281,133)"/>
<path d="M0 0 C0.33 0.99 0.66 1.98 1 3 C0.18144531 3.52078125 -0.63710938 4.0415625 -1.48046875 4.578125 C-4.30608847 6.80186373 -4.30608847 6.80186373 -4.48828125 10.234375 C-4.43027344 11.39453125 -4.37226563 12.5546875 -4.3125 13.75 C-4.24482422 15.50570312 -4.24482422 15.50570312 -4.17578125 17.296875 C-4.11777344 18.18890625 -4.05976563 19.0809375 -4 20 C-3.01 20.33 -2.02 20.66 -1 21 C1.24870046 22.91800922 2.74407977 24.37847944 3.875 27.125 C3.936875 28.053125 3.936875 28.053125 4 29 C3.34 29.66 2.68 30.32 2 31 C2 30.34 2 29.68 2 29 C1.34 29 0.68 29 0 29 C0 28.34 0 27.68 0 27 C-0.928125 26.896875 -1.85625 26.79375 -2.8125 26.6875 C-6.1240793 25.9732378 -7.0815055 25.6858923 -9 23 C-10.97878993 19.24029913 -11.21680947 17.05603155 -10 13 C-9.38325228 11.31422289 -8.71727778 9.64551962 -8 8 C-7.7525 7.319375 -7.505 6.63875 -7.25 5.9375 C-5.41260398 3.08953617 -2.85696473 1.73902201 0 0 Z " fill="#B7EB87" transform="translate(325,104)"/>
<path d="M0 0 C0.66 1.32 1.32 2.64 2 4 C0.25027888 6.22938605 -1.49976805 8.45851504 -3.25 10.6875 C-3.74113281 11.31333984 -4.23226563 11.93917969 -4.73828125 12.58398438 C-5.70851604 13.81941668 -6.68130548 15.05284732 -7.65673828 16.28417969 C-8.82132787 17.7717725 -9.94933274 19.28786838 -11.0703125 20.80859375 C-13.14404046 23.16357632 -14.74995179 24.17305677 -17.625 25.375 C-18.78902344 25.88160156 -18.78902344 25.88160156 -19.9765625 26.3984375 C-22 27 -22 27 -24 26 C-22.66330489 22.86339859 -21.49217278 21.42756854 -18.625 19.625 C-13.57782498 16.06228822 -9.90849164 11.43107478 -6.03759766 6.67431641 C-4.73007286 5.08389931 -3.36916216 3.53767442 -2 2 C-1.34 2 -0.68 2 0 2 C0 1.34 0 0.68 0 0 Z " fill="#1B5E9E" transform="translate(363,120)"/>
<path d="M0 0 C0.66 0.33 1.32 0.66 2 1 C1.81466229 7.04995242 0.85496863 9.97626435 -3.46484375 14.2265625 C-4.05394531 14.77054688 -4.64304687 15.31453125 -5.25 15.875 C-5.82363281 16.4421875 -6.39726562 17.009375 -6.98828125 17.59375 C-10.13392578 20.61758141 -12.76378655 22.67290304 -17 24 C-17.680625 24.391875 -18.36125 24.78375 -19.0625 25.1875 C-21.4523967 26.18971474 -22.60375166 25.85580298 -25 25 C-24.319375 24.608125 -23.63875 24.21625 -22.9375 23.8125 C-21.4834375 22.9153125 -21.4834375 22.9153125 -20 22 C-18.906875 21.34 -17.81375 20.68 -16.6875 20 C-12.45950205 16.96947424 -9.80675482 12.9039369 -6.8671875 8.671875 C-4.73321974 5.61824749 -2.43481997 2.81526059 0 0 Z " fill="#1A5792" transform="translate(365,123)"/>
<path d="M0 0 C1.98 0 3.96 0 6 0 C8.02780269 10.37757848 8.02780269 10.37757848 5.5078125 14.35546875 C3.75112735 16.06629666 1.9998669 17.58363541 0 19 C-0.639375 18.195625 -1.27875 17.39125 -1.9375 16.5625 C-3.40603502 14.7249496 -3.40603502 14.7249496 -5 13 C-5.23427778 10.98405418 -5.41336124 8.961526 -5.5625 6.9375 C-5.64628906 5.83277344 -5.73007812 4.72804688 -5.81640625 3.58984375 C-5.90728516 2.30787109 -5.90728516 2.30787109 -6 1 C-5.34 1 -4.68 1 -4 1 C-3.54625 2.134375 -3.0925 3.26875 -2.625 4.4375 C-1.42904194 8.04721692 -1.42904194 8.04721692 1 9 C1.26932521 4.34947128 1.26932521 4.34947128 0 0 Z " fill="#ABD5FB" transform="translate(340,103)"/>
<path d="M0 0 C0.66 0.66 1.32 1.32 2 2 C4.05496397 2.61261051 4.05496397 2.61261051 6.4296875 3 C7.74646484 3.2475 7.74646484 3.2475 9.08984375 3.5 C10.00894531 3.665 10.92804688 3.83 11.875 4 C13.68589592 4.32785669 15.49584314 4.66100721 17.3046875 5 C18.5110083 5.2165625 18.5110083 5.2165625 19.74169922 5.4375 C22 6 22 6 24.16845703 7.125 C25.0750708 7.558125 25.0750708 7.558125 26 8 C26.66 7.67 27.32 7.34 28 7 C26.35 6.34 24.7 5.68 23 5 C27.17587745 3.60804085 29.13474776 5.17676781 33 7 C32.67 8.32 32.34 9.64 32 11 C34.97 11.33 37.94 11.66 41 12 C40.67 12.66 40.34 13.32 40 14 C37.03 13.67 34.06 13.34 31 13 C31 12.34 31 11.68 31 11 C29.78441406 10.88785156 28.56882813 10.77570313 27.31640625 10.66015625 C21.11470384 9.9710782 15.04454803 8.69555894 8.9375 7.4375 C7.78572266 7.20353516 6.63394531 6.96957031 5.44726562 6.72851562 C2.63077154 6.15586745 -0.18493382 5.57961941 -3 5 C-1.125 1.125 -1.125 1.125 0 0 Z " fill="#BC722F" transform="translate(188,143)"/>
<path d="M0 0 C8.90365912 1.21344588 14.81801087 6.34766933 20.56640625 12.9140625 C22 15 22 15 22 18 C20.35 17.34 18.7 16.68 17 16 C17.33 17.98 17.66 19.96 18 22 C17.01 21.67 16.02 21.34 15 21 C14.27359045 18.68456957 13.61568542 16.34730065 13 14 C11.50783138 10.12036159 10.77833292 8.4399273 7.125 6.375 C6.09375 5.92125 5.0625 5.4675 4 5 C2.30140333 3.70758949 0.62390477 2.38509525 -1 1 C-0.67 0.67 -0.34 0.34 0 0 Z " fill="#79D22A" transform="translate(349,101)"/>
<path d="M0 0 C0.66 0.33 1.32 0.66 2 1 C1.33333333 2.33333333 0.66666667 3.66666667 0 5 C-0.33 5.680625 -0.66 6.36125 -1 7.0625 C-3.68588167 12.26639574 -6.74510616 13.87857989 -12 16 C-15.5 16.75 -15.5 16.75 -18 17 C-17.67 15.35 -17.34 13.7 -17 12 C-16.34 12 -15.68 12 -15 12 C-15 11.34 -15 10.68 -15 10 C-14.01 9.67 -13.02 9.34 -12 9 C-12 7.68 -12 6.36 -12 5 C-11.34 4.67 -10.68 4.34 -10 4 C-9.01 4.99 -8.02 5.98 -7 7 C-4.09197539 4.78071806 -2.04687238 3.07030857 0 0 Z " fill="#6EB6FE" transform="translate(347,115)"/>
<path d="M0 0 C1.2065625 0.0309375 1.2065625 0.0309375 2.4375 0.0625 C5.4375 5.8125 5.4375 5.8125 5.4375 8.0625 C6.4275 7.7325 7.4175 7.4025 8.4375 7.0625 C9.0975 7.3925 9.7575 7.7225 10.4375 8.0625 C10.7675 7.4025 11.0975 6.7425 11.4375 6.0625 C12.7575 6.7225 14.0775 7.3825 15.4375 8.0625 C15.4375 8.7225 15.4375 9.3825 15.4375 10.0625 C16.0975 10.3925 16.7575 10.7225 17.4375 11.0625 C13.12553391 12.00574258 8.81684119 12.54291715 4.4375 13.0625 C4.4375 12.0725 4.4375 11.0825 4.4375 10.0625 C3.4475 10.0625 2.4575 10.0625 1.4375 10.0625 C1.4375 8.7425 1.4375 7.4225 1.4375 6.0625 C0.7775 6.0625 0.1175 6.0625 -0.5625 6.0625 C-0.8925 6.7225 -1.2225 7.3825 -1.5625 8.0625 C-3.5625 6.0625 -3.5625 6.0625 -3.75 3.5 C-3.4919783 0.14571793 -3.38163728 0.08247896 0 0 Z " fill="#1C61A3" transform="translate(323.5625,135.9375)"/>
<path d="M0 0 C0.33 0 0.66 0 1 0 C1.0636188 4.00798409 1.03489384 7.60203566 -1.4140625 10.91015625 C-2.61514006 12.07155063 -3.84730368 13.20148835 -5.10546875 14.30078125 C-7.00843115 16.00756196 -8.45014815 17.78641335 -10 19.8125 C-13.7056698 24.20805513 -17.73630841 24.78644419 -23.3125 25.3125 C-24.199375 25.209375 -25.08625 25.10625 -26 25 C-26.66 24.01 -27.32 23.02 -28 22 C-27.16597656 21.87625 -26.33195312 21.7525 -25.47265625 21.625 C-16.13526561 19.91367984 -10.03658762 16.83550167 -4.5625 8.921875 C-3.3177938 6.85622692 -3.3177938 6.85622692 -2 4 C-1.34 4 -0.68 4 0 4 C0 2.68 0 1.36 0 0 Z " fill="#3D8EDF" transform="translate(356,114)"/>
<path d="M0 0 C10.21260287 -0.35396698 19.10630347 0.15386812 29 3 C28.67 3.66 28.34 4.32 28 5 C22.555 4.505 22.555 4.505 17 4 C18.629375 4.28875 20.25875 4.5775 21.9375 4.875 C24.71484375 5.3671875 24.71484375 5.3671875 27 6 C27.495 6.99 27.495 6.99 28 8 C15.71068526 6.18934861 15.71068526 6.18934861 9.875 4.9375 C4.62070091 3.83997371 -0.65215721 3.38634606 -6 3 C-6 2.67 -6 2.34 -6 2 C-1.38 2 3.24 2 8 2 C5.36 1.67 2.72 1.34 0 1 C0 0.67 0 0.34 0 0 Z " fill="#FBCE30" transform="translate(232,150)"/>
<path d="M0 0 C7.59064664 0.48701051 14.67059167 1.99763587 22 4 C22 4.66 22 5.32 22 6 C24.31 6.66 26.62 7.32 29 8 C26 10 26 10 22.375 9.75 C21.26125 9.5025 20.1475 9.255 19 9 C18.67 8.34 18.34 7.68 18 7 C15.13565596 6.36087308 12.33120119 5.83055456 9.4375 5.375 C8.63119141 5.2409375 7.82488281 5.106875 6.99414062 4.96875 C4.9973876 4.63792701 2.9988433 4.31794962 1 4 C0.67 2.68 0.34 1.36 0 0 Z " fill="#BE9334" transform="translate(189,142)"/>
<path d="M0 0 C0.33 0.66 0.66 1.32 1 2 C-3.10042276 9.08254841 -9.20252814 15.46835209 -16 20 C-17.97265625 20.046875 -17.97265625 20.046875 -20.0625 19.75 C-20.75472656 19.66234375 -21.44695312 19.5746875 -22.16015625 19.484375 C-24 19 -24 19 -26 17 C-25.01 16.731875 -24.02 16.46375 -23 16.1875 C-22.35546875 15.99285156 -21.7109375 15.79820312 -21.046875 15.59765625 C-19.13311562 15.03886773 -17.19151788 14.57802084 -15.25 14.125 C-8.74951651 11.73210549 -4.33374345 5.13835391 0 0 Z " fill="#1D71C4" transform="translate(355,123)"/>
<path d="M0 0 C0.33 0 0.66 0 1 0 C2.50743829 5.48159376 1.59726959 9.11713318 -1 14 C-4.46081829 19.15463269 -8.3013468 22.54368397 -14 25 C-16.76500934 25.29642455 -19.20676691 25.19601636 -22 25 C-19.79792625 21.69688938 -19.23131525 21.46528135 -15.625 20.375 C-14.85414063 20.13523438 -14.08328125 19.89546875 -13.2890625 19.6484375 C-11 19 -11 19 -8.8359375 18.6640625 C-6.84266807 18.15605667 -6.84266807 18.15605667 -5.87890625 16.21484375 C-5.58886719 15.48394531 -5.29882812 14.75304687 -5 14 C-4.48759766 12.91912109 -4.48759766 12.91912109 -3.96484375 11.81640625 C-2.18310341 7.907417 -0.55538371 4.30422377 0 0 Z " fill="#66AEF5" transform="translate(350,109)"/>
<path d="M0 0 C0.66 0 1.32 0 2 0 C0.88786867 2.8231026 -0.26609473 5.53218947 -1.625 8.25 C-3.93244595 14.54303442 -3.33532536 20.49028886 -2 27 C-3.65 27 -5.3 27 -7 27 C-7.81839387 16.75492114 -6.52087807 9.7324692 -1 1 C-0.67 0.67 -0.34 0.34 0 0 Z " fill="#2F8AD8" transform="translate(316,112)"/>
<path d="M0 0 C0.66 0.66 1.32 1.32 2 2 C4.06874034 2.6425235 4.06874034 2.6425235 6 3 C4.02 3.99 4.02 3.99 2 5 C2.85980469 4.96519531 3.71960938 4.93039063 4.60546875 4.89453125 C12.22214058 4.72010365 18.8974096 5.3613971 26.2578125 7.34375 C29.17842202 8.15516276 29.17842202 8.15516276 33 8 C33 8.66 33 9.32 33 10 C31.60386935 9.85704109 30.20810692 9.71048442 28.8125 9.5625 C28.03519531 9.48128906 27.25789063 9.40007812 26.45703125 9.31640625 C24 9 24 9 21.71875 8.5 C18.79799266 7.96284923 16.01024818 7.79011147 13.04296875 7.68359375 C11.93115234 7.64169922 10.81933594 7.59980469 9.67382812 7.55664062 C8.52333984 7.51732422 7.37285156 7.47800781 6.1875 7.4375 C5.01767578 7.39431641 3.84785156 7.35113281 2.64257812 7.30664062 C-0.23817031 7.20081721 -3.11900123 7.09873175 -6 7 C-5.67 6.34 -5.34 5.68 -5 5 C-4.34 5.33 -3.68 5.66 -3 6 C-2.690625 5.195625 -2.38125 4.39125 -2.0625 3.5625 C-1 1 -1 1 0 0 Z " fill="#B38835" transform="translate(229,143)"/>
<path d="M0 0 C0.33 0.66 0.66 1.32 1 2 C-0.13536248 4.28874659 -1.31736866 6.43745122 -2.625 8.625 C-2.99238281 9.25293457 -3.35976563 9.88086914 -3.73828125 10.52783203 C-6.40885166 15.07131564 -9.15901767 19.56096512 -12 24 C-12.99 23.67 -13.98 23.34 -15 23 C-12.77970069 18.43254554 -10.13637384 14.14855155 -7.5 9.8125 C-7.00113281 8.98041016 -6.50226563 8.14832031 -5.98828125 7.29101562 C-5.50746094 6.50017578 -5.02664063 5.70933594 -4.53125 4.89453125 C-4.09361328 4.17112549 -3.65597656 3.44771973 -3.20507812 2.70239258 C-2 1 -2 1 0 0 Z " fill="#F8CA2F" transform="translate(277,137)"/>
<path d="M0 0 C0.99 0.33 1.98 0.66 3 1 C2.67 1.66 2.34 2.32 2 3 C1.01 3 0.02 3 -1 3 C-1.84454356 6.37817425 -2.10844919 8.67465243 -1 12 C1.31 12.33 3.62 12.66 6 13 C6 13.66 6 14.32 6 15 C6.66 15.33 7.32 15.66 8 16 C5.86640881 17.29539465 4.52392246 18.03274515 2 17.875 C-0.77817069 16.65955032 -2.15231609 15.42110306 -4 13 C-5.08942951 9.00542512 -5.42137647 6.92301513 -3.6875 3.125 C-2 1 -2 1 0 0 Z " fill="#D6F5BC" transform="translate(328,108)"/>
<path d="M0 0 C1.98 0 3.96 0 6 0 C8.02780269 10.37757848 8.02780269 10.37757848 5.5078125 14.35546875 C3.75112735 16.06629666 1.9998669 17.58363541 0 19 C0 16 0 16 1.01953125 14.1328125 C2.25214872 11.45150119 2.04773452 9.78291723 1.6875 6.875 C1.53861328 5.57175781 1.53861328 5.57175781 1.38671875 4.2421875 C1.1062483 1.97192498 1.1062483 1.97192498 0 0 Z " fill="#86C2FA" transform="translate(340,103)"/>
<path d="M0 0 C0.33 0 0.66 0 1 0 C1.44554822 2.97032148 1.59071863 5.12722652 -0.13818359 7.68164062 C-1.75488203 9.45469387 -3.43794843 11.10802604 -5.1875 12.75 C-5.76564453 13.32621094 -6.34378906 13.90242187 -6.93945312 14.49609375 C-10.08035268 17.54116925 -12.70919762 19.73942529 -17 21 C-15.87517942 17.62553826 -15.01600451 16.98045314 -12.3125 14.8125 C-7.21906034 10.50548011 -3.67635679 5.51453519 0 0 Z " fill="#1A5087" transform="translate(365,126)"/>
<path d="M0 0 C4.21912747 0.4794463 6.79663178 1.16625119 10 4 C9.67 4.99 9.34 5.98 9 7 C11.97 7.33 14.94 7.66 18 8 C17.67 8.66 17.34 9.32 17 10 C14.03 9.67 11.06 9.34 8 9 C8 8.34 8 7.68 8 7 C7.38511719 6.95101562 6.77023438 6.90203125 6.13671875 6.8515625 C4.92435547 6.73941406 4.92435547 6.73941406 3.6875 6.625 C2.88699219 6.55539063 2.08648437 6.48578125 1.26171875 6.4140625 C-1 6 -1 6 -4 4 C-0.535 3.505 -0.535 3.505 3 3 C2.67 2.67 2.34 2.34 2 2 C1.34 1.34 0.68 0.68 0 0 Z " fill="#B47537" transform="translate(211,147)"/>
<path d="M0 0 C0.99 0.33 1.98 0.66 3 1 C-2.23987141 6.38542339 -7.7501662 7.55707191 -15 9 C-14.20882096 10.99983534 -14.20882096 10.99983534 -13 13 C-12.01 13.33 -11.02 13.66 -10 14 C-10 14.66 -10 15.32 -10 16 C-12.3125 16.25 -12.3125 16.25 -15 16 C-16.9375 14.375 -16.9375 14.375 -18 12 C-17.1875 8.75 -17.1875 8.75 -16 6 C-15.02160156 5.85304687 -15.02160156 5.85304687 -14.0234375 5.703125 C-7.93156293 4.68990867 -7.93156293 4.68990867 -2.5625 1.8125 C-1.716875 1.214375 -0.87125 0.61625 0 0 Z " fill="#499AEA" transform="translate(344,128)"/>
<path d="M0 0 C0 0.99 0 1.98 0 3 C-0.99 3.66 -1.98 4.32 -3 5 C-1.125 1.125 -1.125 1.125 0 0 Z M-4 5 C-4 10.44177434 -8.33467453 14.33148426 -12.0390625 18.04296875 C-17.78278353 23.25964422 -17.78278353 23.25964422 -22 24 C-20.63133113 20.75805202 -19.29058779 19.24654529 -16.375 17.3125 C-11.50816843 13.84510535 -7.81472592 9.56549645 -4 5 Z " fill="#1B63AB" transform="translate(361,122)"/>
<path d="M0 0 C0.66 0.66 1.32 1.32 2 2 C1.67 2.33 1.34 2.66 1 3 C-1.04208321 2.99408092 -3.08409923 2.94473465 -5.125 2.875 C-10.67295701 2.82019033 -14.17938622 3.32188123 -19 6 C-19.99 6.495 -19.99 6.495 -21 7 C-20.7421875 5.109375 -20.7421875 5.109375 -20 3 C-14.29222331 -0.55740501 -6.50219726 -0.85584477 0 0 Z " fill="#439EE1" transform="translate(347,100)"/>
<path d="M0 0 C0.66 0 1.32 0 2 0 C2 1.32 2 2.64 2 4 C3.65 4 5.3 4 7 4 C7.66 5.65 8.32 7.3 9 9 C9.99 8.67 10.98 8.34 12 8 C12 9.32 12 10.64 12 12 C12.99 12 13.98 12 15 12 C14.67 12.99 14.34 13.98 14 15 C7.56582925 11.95813714 3.57712478 9.23112059 0 3 C0 2.01 0 1.02 0 0 Z " fill="#78D132" transform="translate(313,134)"/>
<path d="M0 0 C1.375 1.75 1.375 1.75 2 4 C1.625 6.75 1.625 6.75 1 9 C-0.9375 8.375 -0.9375 8.375 -3 7 C-3.75 3.875 -3.75 3.875 -4 1 C-6.31 1.33 -8.62 1.66 -11 2 C-6.96449 -0.69034 -4.62815584 -1.54271861 0 0 Z " fill="#B5E89B" transform="translate(340,103)"/>
<path d="M0 0 C0.33 0.66 0.66 1.32 1 2 C3.34907875 2.68931344 3.34907875 2.68931344 6.0625 3.125 C6.98160156 3.29257813 7.90070313 3.46015625 8.84765625 3.6328125 C9.91306641 3.81457031 9.91306641 3.81457031 11 4 C10 7 10 7 7 9 C4.3125 9.125 4.3125 9.125 2 9 C2 7.68 2 6.36 2 5 C1.34 5 0.68 5 0 5 C0 3.35 0 1.7 0 0 Z " fill="#96E14B" transform="translate(313,129)"/>
<path d="M0 0 C1.2065625 0.0309375 1.2065625 0.0309375 2.4375 0.0625 C3.0975 1.3825 3.7575 2.7025 4.4375 4.0625 C3.7775 4.0625 3.1175 4.0625 2.4375 4.0625 C2.7675 6.0425 3.0975 8.0225 3.4375 10.0625 C2.7775 10.0625 2.1175 10.0625 1.4375 10.0625 C1.4375 8.7425 1.4375 7.4225 1.4375 6.0625 C0.7775 6.0625 0.1175 6.0625 -0.5625 6.0625 C-0.8925 6.7225 -1.2225 7.3825 -1.5625 8.0625 C-3.5625 6.0625 -3.5625 6.0625 -3.75 3.5 C-3.4919783 0.14571793 -3.38163728 0.08247896 0 0 Z " fill="#2876AE" transform="translate(323.5625,135.9375)"/>
<path d="M0 0 C0.66 0.33 1.32 0.66 2 1 C-0.67796972 4.46560787 -3.83662716 5.08264666 -8 6 C-11.3125 6.3125 -11.3125 6.3125 -14 6 C-14.66 5.01 -15.32 4.02 -16 3 C-14.51886719 2.80083984 -14.51886719 2.80083984 -13.0078125 2.59765625 C-11.72648437 2.42105469 -10.44515625 2.24445313 -9.125 2.0625 C-7.21074219 1.80146484 -7.21074219 1.80146484 -5.2578125 1.53515625 C-2.12440546 1.18566773 -2.12440546 1.18566773 0 0 Z " fill="#3185D8" transform="translate(344,133)"/>
<path d="M0 0 C1.98 0.66 3.96 1.32 6 2 C6.33 3.65 6.66 5.3 7 7 C5.68 7 4.36 7 3 7 C2.34 8.32 1.68 9.64 1 11 C0.67 7.37 0.34 3.74 0 0 Z " fill="#5CA39D" transform="translate(354,107)"/>
<path d="M0 0 C1.32 1.65 2.64 3.3 4 5 C2.68 5.33 1.36 5.66 0 6 C0 6.66 0 7.32 0 8 C-1.64333504 9.03789581 -3.31243867 10.03567924 -5 11 C-5.66 11.66 -6.32 12.32 -7 13 C-6.67 11.35 -6.34 9.7 -6 8 C-5.34 8 -4.68 8 -4 8 C-4 7.34 -4 6.68 -4 6 C-3.01 5.67 -2.02 5.34 -1 5 C-1 3.68 -1 2.36 -1 1 C-0.67 0.67 -0.34 0.34 0 0 Z " fill="#8DC7F6" transform="translate(336,119)"/>
<path d="M0 0 C-5.52240576 4.11242982 -9.09296024 5.61669998 -16 5 C-13.5183956 1.2775934 -12.25355573 1.25203957 -8 0.25 C-6.39125 -0.14445313 -6.39125 -0.14445313 -4.75 -0.546875 C-2 -1 -2 -1 0 0 Z " fill="#59A7F5" transform="translate(344,129)"/>
<path d="M0 0 C0.66 0.33 1.32 0.66 2 1 C-0.59966054 6.19932107 -2.63926297 9.26260237 -8 12 C-8.99 11.67 -9.98 11.34 -11 11 C-7.33333333 7.33333333 -3.66666667 3.66666667 0 0 Z " fill="#7ABCFD" transform="translate(347,115)"/>
<path d="M0 0 C5.95507399 0.3916035 10.62819824 1.37124595 16 4 C13 6 13 6 9.375 5.75 C8.26125 5.5025 7.1475 5.255 6 5 C5.67 4.34 5.34 3.68 5 3 C2.47266765 2.34444881 2.47266765 2.34444881 0 2 C0 1.34 0 0.68 0 0 Z " fill="#F6C930" transform="translate(202,146)"/>
<path d="M0 0 C0.99 0 1.98 0 3 0 C3.66 3.3 4.32 6.6 5 10 C3.35 10 1.7 10 0 10 C0 6.7 0 3.4 0 0 Z " fill="#246DB4" transform="translate(309,129)"/>
<path d="M0 0 C1 3 1 3 0.22265625 4.82421875 C-0.8515625 6.54947917 -1.92578125 8.27473958 -3 10 C-4.98 10 -6.96 10 -9 10 C-9.33 9.34 -9.66 8.68 -10 8 C-9.236875 7.95875 -8.47375 7.9175 -7.6875 7.875 C-4.68545206 7.23296223 -4.68545206 7.23296223 -3.3125 4 C-2.879375 3.01 -2.44625 2.02 -2 1 C-1.34 0.67 -0.68 0.34 0 0 Z " fill="#981B0F" transform="translate(269,155)"/>
<path d="M0 0 C1.7492214 -0.08142927 3.49954542 -0.13938541 5.25 -0.1875 C6.22453125 -0.22230469 7.1990625 -0.25710937 8.203125 -0.29296875 C11.37468742 0.03924798 12.67040307 0.88672279 15 3 C5.58997722 4.33257403 5.58997722 4.33257403 1 3 C0.67 2.01 0.34 1.02 0 0 Z " fill="#BE9132" transform="translate(219,151)"/>
<path d="M0 0 C0.66 0 1.32 0 2 0 C2.66 2.31 3.32 4.62 4 7 C5.65 7.33 7.3 7.66 9 8 C9 8.33 9 8.66 9 9 C4.44615385 9.36923077 4.44615385 9.36923077 2.1875 7.5 C1.795625 7.005 1.40375 6.51 1 6 C0.67 7.65 0.34 9.3 0 11 C-0.33 11 -0.66 11 -1 11 C-1.0270043 9.54176788 -1.04639787 8.08339325 -1.0625 6.625 C-1.07410156 5.81289062 -1.08570313 5.00078125 -1.09765625 4.1640625 C-1 2 -1 2 0 0 Z " fill="#96D876" transform="translate(313,122)"/>
<path d="M0 0 C0.33 1.32 0.66 2.64 1 4 C0.34 4 -0.32 4 -1 4 C-1.33 6.31 -1.66 8.62 -2 11 C-2.33 10.34 -2.66 9.68 -3 9 C-3.99 8.67 -4.98 8.34 -6 8 C-5.34 6.35 -4.68 4.7 -4 3 C-3.01 3 -2.02 3 -1 3 C-0.67 2.01 -0.34 1.02 0 0 Z " fill="#CBE6F7" transform="translate(331,108)"/>
<path d="M0 0 C0.33 0.99 0.66 1.98 1 3 C-0.95421035 3.86355778 -2.91351347 4.71559934 -4.875 5.5625 C-5.96554687 6.03816406 -7.05609375 6.51382813 -8.1796875 7.00390625 C-9.11039062 7.33261719 -10.04109375 7.66132812 -11 8 C-11.66 7.67 -12.32 7.34 -13 7 C-4.738041 0.29612756 -4.738041 0.29612756 0 0 Z " fill="#C4EDA1" transform="translate(333,104)"/>
<path d="M0 0 C0.33 0 0.66 0 1 0 C0.80743982 8.19256018 0.80743982 8.19256018 -2.5625 11.5625 C-3.366875 12.036875 -4.17125 12.51125 -5 13 C-4.44271087 9.65626525 -3.64826111 6.96687001 -2 4 C-1.34 4 -0.68 4 0 4 C0 2.68 0 1.36 0 0 Z " fill="#408AD3" transform="translate(356,114)"/>
<path d="M0 0 C2 2 2 2 2.3125 4.875 C1.97023843 8.29761565 1.35239747 9.5571257 -1 12 C-1.99 12.495 -1.99 12.495 -3 13 C-2.17812739 8.61667943 -1.09845718 4.32059823 0 0 Z " fill="#9ACDFD" transform="translate(341,107)"/>
<path d="M0 0 C0.33 0.99 0.66 1.98 1 3 C-1.64 4.98 -4.28 6.96 -7 9 C-7 7.68 -7 6.36 -7 5 C-5.46875 3.515625 -5.46875 3.515625 -3.5 2.25 C-2.8503125 1.82203125 -2.200625 1.3940625 -1.53125 0.953125 C-1.0259375 0.63859375 -0.520625 0.3240625 0 0 Z " fill="#78D23D" transform="translate(325,104)"/>
<path d="M0 0 C0.66 0.66 1.32 1.32 2 2 C4.06874034 2.6425235 4.06874034 2.6425235 6 3 C4.02 3.66 2.04 4.32 0 5 C1.32 5.66 2.64 6.32 4 7 C0.7 7 -2.6 7 -6 7 C-5.67 6.34 -5.34 5.68 -5 5 C-4.34 5.33 -3.68 5.66 -3 6 C-2.690625 5.195625 -2.38125 4.39125 -2.0625 3.5625 C-1 1 -1 1 0 0 Z " fill="#9F7536" transform="translate(229,143)"/>
<path d="M0 0 C3.40667322 0.44824648 5.07914607 1.05276405 8 3 C8 3.66 8 4.32 8 5 C8.66 5.66 9.32 6.32 10 7 C6.23834336 6.49166802 4.49964062 5.8405007 2 3 C1.01 2.34 0.02 1.68 -1 1 C-0.67 0.67 -0.34 0.34 0 0 Z " fill="#7FD14E" transform="translate(349,101)"/>
<path d="M0 0 C0.80824219 0.11085937 1.61648437 0.22171875 2.44921875 0.3359375 C3.37154297 0.47902344 3.37154297 0.47902344 4.3125 0.625 C3.10546875 2.17578125 3.10546875 2.17578125 1.3125 3.625 C-0.94921875 3.48046875 -0.94921875 3.48046875 -3.375 2.8125 C-4.58736328 2.49345703 -4.58736328 2.49345703 -5.82421875 2.16796875 C-6.74654297 1.89919922 -6.74654297 1.89919922 -7.6875 1.625 C-4.33422361 -0.61051759 -3.78006343 -0.54783528 0 0 Z " fill="#BF7E33" transform="translate(205.6875,148.375)"/>
<path d="M0 0 C2 1 2 1 2.9375 3.5 C3.288125 4.325 3.63875 5.15 4 6 C4.99 6.33 5.98 6.66 7 7 C7 7.66 7 8.32 7 9 C4.6875 9.25 4.6875 9.25 2 9 C0.125 7.3125 0.125 7.3125 -1 5 C-0.6875 2.25 -0.6875 2.25 0 0 Z " fill="#58A98C" transform="translate(327,135)"/>
<path d="M0 0 C0.66 0 1.32 0 2 0 C2 0.66 2 1.32 2 2 C2.66 2 3.32 2 4 2 C4 2.66 4 3.32 4 4 C4.66 4 5.32 4 6 4 C5.67 5.32 5.34 6.64 5 8 C3.02 6.68 1.04 5.36 -1 4 C-0.34 3.67 0.32 3.34 1 3 C0.67 2.01 0.34 1.02 0 0 Z " fill="#BD9234" transform="translate(217,142)"/>
<path d="M0 0 C1.32 0.33 2.64 0.66 4 1 C4 2.98 4 4.96 4 7 C3.01 7 2.02 7 1 7 C0.67 4.69 0.34 2.38 0 0 Z " fill="#CFEDD6" transform="translate(331,107)"/>
<path d="M0 0 C2.97 0.33 5.94 0.66 9 1 C8.67 1.66 8.34 2.32 8 3 C2.25 3.125 2.25 3.125 0 2 C0 1.34 0 0.68 0 0 Z " fill="#8E2A18" transform="translate(220,154)"/>
<path d="M0 0 C1.98 0.66 3.96 1.32 6 2 C5.67 3.32 5.34 4.64 5 6 C4.34 5.34 3.68 4.68 3 4 C2.34 4.66 1.68 5.32 1 6 C0.67 4.02 0.34 2.04 0 0 Z " fill="#265D72" transform="translate(366,117)"/>
<path d="M0 0 C2.475 0.99 2.475 0.99 5 2 C5 2.66 5 3.32 5 4 C5.66 4.33 6.32 4.66 7 5 C5.68 5.33 4.36 5.66 3 6 C3 5.34 3 4.68 3 4 C2.01 3.67 1.02 3.34 0 3 C0 2.01 0 1.02 0 0 Z " fill="#276F98" transform="translate(334,142)"/>
<path d="M0 0 C1.65 0 3.3 0 5 0 C5.33 0.99 5.66 1.98 6 3 C3.69 3 1.38 3 -1 3 C-0.67 2.01 -0.34 1.02 0 0 Z " fill="#3D8BC8" transform="translate(321,136)"/>
<path d="M0 0 C-1.28519565 2.86697492 -2.57129254 4.97607712 -5 7 C-5.66 7 -6.32 7 -7 7 C-3.86206897 0 -3.86206897 0 0 0 Z " fill="#D1A93F" transform="translate(250,117)"/>
<path d="M0 0 C-2.8125 1.5625 -2.8125 1.5625 -6 3 C-6.99 2.67 -7.98 2.34 -9 2 C-9 1.34 -9 0.68 -9 0 C-3.375 -1.125 -3.375 -1.125 0 0 Z " fill="#E5B03A" transform="translate(237,154)"/>
<path d="M0 0 C0.33 0.99 0.66 1.98 1 3 C-0.3125 5.1875 -0.3125 5.1875 -2 7 C-2.66 7 -3.32 7 -4 7 C-3.39816251 4.97954558 -2.72693904 2.97888961 -2 1 C-1.34 0.67 -0.68 0.34 0 0 Z " fill="#9A2713" transform="translate(269,155)"/>
<path d="M0 0 C2.3431213 0.25561323 4.67843403 0.59270772 7 1 C7.33 1.66 7.66 2.32 8 3 C5.69 3 3.38 3 1 3 C0.67 2.01 0.34 1.02 0 0 Z " fill="#FACC2F" transform="translate(189,143)"/>
</svg>
