<?xml version="1.0" encoding="UTF-8"?>
<svg version="1.1" xmlns="http://www.w3.org/2000/svg" width="815" height="537">
<path d="M0 0 C268.95 0 537.9 0 815 0 C815 177.21 815 354.42 815 537 C546.05 537 277.1 537 0 537 C0 359.79 0 182.58 0 0 Z " fill="#1D447B" transform="translate(0,0)"/>
<path d="M0 0 C3.54138618 -0.11681812 7.0822724 -0.187455 10.625 -0.25 C11.62402344 -0.28351563 12.62304688 -0.31703125 13.65234375 -0.3515625 C19.79748696 -0.43295513 23.30856027 -0.08357877 28 4 C29 5 29 5 29.3125 8.25 C28.95628972 12.52452339 27.93261437 13.97574144 25 17 C25.94875 17.433125 26.8975 17.86625 27.875 18.3125 C31 20 31 20 33 23 C33.78651685 29.96629213 33.78651685 29.96629213 30.8125 33.875 C26.35056207 37.24624199 22.82666484 38.25483064 17.26171875 38.1953125 C15.66166992 38.18564453 15.66166992 38.18564453 14.02929688 38.17578125 C12.92650391 38.15902344 11.82371094 38.14226562 10.6875 38.125 C9.56537109 38.11597656 8.44324219 38.10695313 7.28710938 38.09765625 C4.52452091 38.07414486 1.76237068 38.04128155 -1 38 C-1 37.01 -1 36.02 -1 35 C0.98 34.505 0.98 34.505 3 34 C3.33 23.77 3.66 13.54 4 3 C2.68 2.67 1.36 2.34 0 2 C0 1.34 0 0.68 0 0 Z " fill="#EAEEF3" transform="translate(275,227)"/>
<path d="M0 0 C0.61875 0.33 1.2375 0.66 1.875 1 C2.535 0.34 3.195 -0.32 3.875 -1 C6.5 -0.625 6.5 -0.625 8.875 0 C8.545 1.32 8.215 2.64 7.875 4 C6.555 4 5.235 4 3.875 4 C4.205 4.66 4.535 5.32 4.875 6 C5.09138633 10.7887236 4.49421485 14.13309921 1.6875 18.0625 C-3.28020343 21.64415284 -10.33844102 20.35670569 -16.125 20 C-15.795 20.66 -15.465 21.32 -15.125 22 C-11.85397735 22.68665066 -8.59839252 23.21021453 -5.29101562 23.6796875 C-0.41391472 24.47227269 2.99007581 25.74148219 6.875 29 C7.63327344 33.17050393 7.37042722 35.17428797 5.1875 38.8125 C0.51016856 43.23700271 -4.28749471 43.37429255 -10.4609375 43.2578125 C-13.91370459 42.92367375 -16.27888693 41.97038597 -19.125 40 C-21.27415785 36.77626323 -21.50786803 35.73296326 -21.125 32 C-20.465 31.34 -19.805 30.68 -19.125 30 C-16.5 30.375 -16.5 30.375 -14.125 31 C-13.9296875 33.05078125 -13.734375 35.1015625 -13.5390625 37.15234375 C-13.40242187 37.76207031 -13.26578125 38.37179687 -13.125 39 C-9.99793041 40.5635348 -6.54517557 40.39958487 -3.125 40 C-2.135 39.34 -1.145 38.68 -0.125 38 C0.1252157 34.91634129 0.1252157 34.91634129 -0.125 32 C-4.98676582 30.52033214 -9.77482278 29.47412323 -14.79296875 28.66015625 C-17.43497992 27.91225024 -19.04054315 26.75861072 -21.125 25 C-20.62668276 21.31245243 -20.02432357 19.39509338 -17.125 17 C-17.62 16.29875 -18.115 15.5975 -18.625 14.875 C-20.40421665 11.46483475 -20.74450423 9.79446342 -20.125 6 C-15.25740835 -1.7520904 -8.44268258 -2.70165843 0 0 Z " fill="#F5F6F9" transform="translate(571.125,235)"/>
<path d="M0 0 C0.33 4.62 0.66 9.24 1 14 C2.32 13.01 3.64 12.02 5 11 C7.4375 10.49609375 7.4375 10.49609375 10 10.4375 C11.2684375 10.37369141 11.2684375 10.37369141 12.5625 10.30859375 C15.48340515 11.13711973 16.73021493 12.36349049 18.26757812 14.9699707 C19.82385347 19.28344719 19.40166685 23.85416133 19.25 28.375 C19.23195313 29.39722656 19.21390625 30.41945312 19.1953125 31.47265625 C19.14839491 33.98274749 19.08276729 36.49087764 19 39 C19.99 39 20.98 39 22 39 C22 39.99 22 40.98 22 42 C17.38 42 12.76 42 8 42 C8 41.34 8 40.68 8 40 C8.99 39.34 9.98 38.68 11 38 C11.43199491 35.80905414 11.43199491 35.80905414 11.328125 33.28125 C11.32296875 32.34925781 11.3178125 31.41726562 11.3125 30.45703125 C11.291875 29.48121094 11.27125 28.50539062 11.25 27.5 C11.24484375 26.52417969 11.2396875 25.54835937 11.234375 24.54296875 C11.36713897 19.60982441 11.36713897 19.60982441 10 15 C4.98464948 15.32960216 4.98464948 15.32960216 1 18 C0.62995706 20.22658154 0.62995706 20.22658154 0.5859375 22.7890625 C0.52792969 24.20058594 0.52792969 24.20058594 0.46875 25.640625 C0.42234375 27.11789063 0.42234375 27.11789063 0.375 28.625 C0.31699219 30.11386719 0.31699219 30.11386719 0.2578125 31.6328125 C0.1633686 34.08835385 0.07780125 36.5438841 0 39 C1.32 39.33 2.64 39.66 4 40 C4 40.66 4 41.32 4 42 C-0.95 42 -5.9 42 -11 42 C-11 41.34 -11 40.68 -11 40 C-10.01 39.34 -9.02 38.68 -8 38 C-7.73272986 35.51659097 -7.65133666 33.28527932 -7.70703125 30.8046875 C-7.71339851 29.74352219 -7.71339851 29.74352219 -7.71989441 28.66091919 C-7.73670453 26.39856095 -7.77435872 24.13708952 -7.8125 21.875 C-7.82754393 20.34246077 -7.84123284 18.8099076 -7.85351562 17.27734375 C-7.88661538 13.51788682 -7.93841175 9.75909382 -8 6 C-8.99 5.67 -9.98 5.34 -11 5 C-10 2 -10 2 -7.75 0.8125 C-5 0 -5 0 0 0 Z " fill="#EDF0F4" transform="translate(652,223)"/>
<path d="M0 0 C2.79311996 2.18412823 3.85165474 3.84361899 4.30517578 7.37890625 C4.39440881 10.20172942 4.34856525 12.99012191 4.25 15.8125 C4.23195313 16.79154297 4.21390625 17.77058594 4.1953125 18.77929688 C4.14832887 21.18720771 4.08265694 23.59309335 4 26 C4.99 26 5.98 26 7 26 C6 29 6 29 3.6875 30.1875 C1 31 1 31 -3 31 C-3.33 30.01 -3.66 29.02 -4 28 C-4.474375 28.495 -4.94875 28.99 -5.4375 29.5 C-9.22586418 31.71757903 -12.71245856 31.69230027 -17 31 C-19.5625 29.4375 -19.5625 29.4375 -21 27 C-21.5625 23.5625 -21.5625 23.5625 -21 20 C-17.61818772 15.35000812 -13.43856243 13.38157029 -8 12 C-5 11.8125 -5 11.8125 -3 12 C-3.33 9.03 -3.66 6.06 -4 3 C-6.7859186 2.32987578 -6.7859186 2.32987578 -10 3 C-12.08132026 5.45240837 -13.55490096 8.1353789 -15 11 C-16.32 10.67 -17.64 10.34 -19 10 C-19.375 7.8125 -19.375 7.8125 -19 5 C-14.23392413 -1.12781183 -7.37794194 -1.6204782 0 0 Z " fill="#F7F8FA" transform="translate(393,234)"/>
<path d="M0 0 C1.04027344 -0.03738281 2.08054687 -0.07476562 3.15234375 -0.11328125 C6.0625 0.3125 6.0625 0.3125 8.42578125 1.62890625 C11.10036574 6.01420349 10.47811369 10.54313134 10.3125 15.5625 C10.29445313 16.59375 10.27640625 17.625 10.2578125 18.6875 C10.21072712 21.23011064 10.1449805 23.77083162 10.0625 26.3125 C11.0525 26.3125 12.0425 26.3125 13.0625 26.3125 C12.0625 29.3125 12.0625 29.3125 9.75 30.5 C7.0625 31.3125 7.0625 31.3125 3.0625 31.3125 C2.7325 30.3225 2.4025 29.3325 2.0625 28.3125 C1.588125 28.8075 1.11375 29.3025 0.625 29.8125 C-3.16336418 32.03007903 -6.64995856 32.00480027 -10.9375 31.3125 C-13.5 29.75 -13.5 29.75 -14.9375 27.3125 C-15.5 23.875 -15.5 23.875 -14.9375 20.3125 C-11.55568772 15.66250812 -7.37606243 13.69407029 -1.9375 12.3125 C1.0625 12.125 1.0625 12.125 3.0625 12.3125 C2.7325 9.3425 2.4025 6.3725 2.0625 3.3125 C-0.7234186 2.64237578 -0.7234186 2.64237578 -3.9375 3.3125 C-6.01882026 5.76490837 -7.49240096 8.4478789 -8.9375 11.3125 C-10.2575 10.9825 -11.5775 10.6525 -12.9375 10.3125 C-13.1875 8.0625 -13.1875 8.0625 -12.9375 5.3125 C-9.19418154 0.66562191 -5.76451254 0.1353841 0 0 Z " fill="#F8F9FB" transform="translate(452.9375,233.6875)"/>
<path d="M0 0 C2.79604878 2.18183478 3.85163319 3.84333238 4.30517578 7.37915039 C4.39441427 10.20189115 4.34856239 12.99020394 4.25 15.8125 C4.23195313 16.79154297 4.21390625 17.77058594 4.1953125 18.77929688 C4.14832887 21.18720771 4.08265694 23.59309335 4 26 C4.99 26 5.98 26 7 26 C6 29 6 29 3.6875 30.1875 C1 31 1 31 -3 31 C-3.33 29.68 -3.66 28.36 -4 27 C-4.474375 27.66 -4.94875 28.32 -5.4375 29 C-8.72277284 31.56411539 -10.80380808 31.52971472 -14.87109375 31.30859375 C-17 31 -17 31 -19.5625 30 C-21.42645211 27.40667533 -21.62085963 25.15099989 -21.44140625 21.99609375 C-20.66059516 18.46516925 -18.85921295 17.08484278 -16 15 C-11.41482584 12.70741292 -8.21631322 12 -3 12 C-3.495 7.05 -3.495 7.05 -4 2 C-6.31 2 -8.62 2 -11 2 C-11.433125 3.670625 -11.433125 3.670625 -11.875 5.375 C-13 9 -13 9 -15 11 C-17.125 10.625 -17.125 10.625 -19 10 C-19.375 7.25 -19.375 7.25 -19 4 C-14.15727547 -1.2578152 -6.74042746 -1.40207858 0 0 Z " fill="#EBEEF3" transform="translate(333,234)"/>
<path d="M0 0 C0.33 0.99 0.66 1.98 1 3 C1.556875 2.51660156 2.11375 2.03320312 2.6875 1.53515625 C5.34314248 -0.2277956 6.84061324 -0.49025792 10 -0.5625 C10.845625 -0.60503906 11.69125 -0.64757812 12.5625 -0.69140625 C15.48340515 0.13711973 16.73021493 1.36349049 18.26757812 3.9699707 C19.82385347 8.28344719 19.40166685 12.85416133 19.25 17.375 C19.23195313 18.39722656 19.21390625 19.41945312 19.1953125 20.47265625 C19.14839491 22.98274749 19.08276729 25.49087764 19 28 C20.32 28.33 21.64 28.66 23 29 C23 29.66 23 30.32 23 31 C18.05 31 13.1 31 8 31 C8 30.34 8 29.68 8 29 C8.99 28.34 9.98 27.68 11 27 C11.43199491 24.80905414 11.43199491 24.80905414 11.328125 22.28125 C11.32296875 21.34925781 11.3178125 20.41726562 11.3125 19.45703125 C11.291875 18.48121094 11.27125 17.50539062 11.25 16.5 C11.24484375 15.52417969 11.2396875 14.54835937 11.234375 13.54296875 C11.36713897 8.60982441 11.36713897 8.60982441 10 4 C4.98464948 4.32960216 4.98464948 4.32960216 1 7 C0.62995706 9.22658154 0.62995706 9.22658154 0.5859375 11.7890625 C0.52792969 13.20058594 0.52792969 13.20058594 0.46875 14.640625 C0.42234375 16.11789063 0.42234375 16.11789063 0.375 17.625 C0.31699219 19.11386719 0.31699219 19.11386719 0.2578125 20.6328125 C0.1633686 23.08835385 0.07780125 25.5438841 0 28 C1.32 28.33 2.64 28.66 4 29 C4 29.66 4 30.32 4 31 C-0.95 31 -5.9 31 -11 31 C-11 30.34 -11 29.68 -11 29 C-10.01 28.34 -9.02 27.68 -8 27 C-7.58429992 24.77501085 -7.58429992 24.77501085 -7.70703125 22.2109375 C-7.71669922 21.26992187 -7.72636719 20.32890625 -7.73632812 19.359375 C-7.76146484 18.37453125 -7.78660156 17.3896875 -7.8125 16.375 C-7.82603516 15.38242188 -7.83957031 14.38984375 -7.85351562 13.3671875 C-7.88894257 10.91091928 -7.93833804 8.45572715 -8 6 C-8.99 5.67 -9.98 5.34 -11 5 C-11 4.34 -11 3.68 -11 3 C-7.14243493 0.84694043 -4.44870215 -0.39253254 0 0 Z " fill="#EFF1F5" transform="translate(525,234)"/>
<path d="M0 0 C0.33 1.32 0.66 2.64 1 4 C1.639375 3.34 2.27875 2.68 2.9375 2 C6.52214366 -0.34099178 8.65182509 -0.50620629 12.81640625 -0.62890625 C15 0 15 0 17.26171875 1.796875 C19.91933135 6.69404878 19.42381425 11.34069381 19.25 16.8125 C19.23195313 17.88693359 19.21390625 18.96136719 19.1953125 20.06835938 C19.14829392 22.71315465 19.0825916 25.35611589 19 28 C20.32 28 21.64 28 23 28 C23 28.99 23 29.98 23 31 C18.05 31 13.1 31 8 31 C8 30.34 8 29.68 8 29 C9.32 28.67 10.64 28.34 12 28 C11.86184471 24.18718055 11.71319438 20.37484283 11.5625 16.5625 C11.52318359 15.47388672 11.48386719 14.38527344 11.44335938 13.26367188 C11.40146484 12.22919922 11.35957031 11.19472656 11.31640625 10.12890625 C11.27974854 9.17056885 11.24309082 8.21223145 11.20532227 7.22485352 C11.24165576 5.02861075 11.24165576 5.02861075 10 4 C6.96688512 3.59011961 5.46843869 3.69547172 2.87890625 5.37890625 C-0.00872226 9.40717804 0.32460635 13.40736973 0.25 18.25 C0.22035156 19.18585938 0.19070313 20.12171875 0.16015625 21.0859375 C0.08960196 23.39071092 0.03683748 25.69448168 0 28 C1.32 28.33 2.64 28.66 4 29 C4 29.66 4 30.32 4 31 C-0.95 31 -5.9 31 -11 31 C-10.505 29.515 -10.505 29.515 -10 28 C-9.01 28 -8.02 28 -7 28 C-7.33 20.74 -7.66 13.48 -8 6 C-8.99 5.67 -9.98 5.34 -11 5 C-11 4.01 -11 3.02 -11 2 C-7.12315913 0.80712589 -4.08378077 0 0 0 Z " fill="#EFF2F6" transform="translate(413,234)"/>
<path d="M0 0 C8.91 0 17.82 0 27 0 C27 2.64 27 5.28 27 8 C24 7 24 7 22.63671875 4.984375 C21.14546044 2.77387169 21.14546044 2.77387169 18.51953125 2.390625 C17.17955078 2.32101563 17.17955078 2.32101563 15.8125 2.25 C13.4303125 2.12625 13.4303125 2.12625 11 2 C11 6.95 11 11.9 11 17 C14.3 16.67 17.6 16.34 21 16 C21.33 15.01 21.66 14.02 22 13 C22.66 13 23.32 13 24 13 C24 16.3 24 19.6 24 23 C23.34 23 22.68 23 22 23 C21.67 22.34 21.34 21.68 21 21 C18.64400765 20.53248212 18.64400765 20.53248212 15.9375 20.375 C13.4934375 20.189375 13.4934375 20.189375 11 20 C11 24.95 11 29.9 11 35 C16.56480544 34.88339513 16.56480544 34.88339513 22 34 C24.61974426 31.11725921 24.61974426 31.11725921 26 28 C26.66 28 27.32 28 28 28 C27.67 31.3 27.34 34.6 27 38 C17.76 38 8.52 38 -1 38 C-1 37.01 -1 36.02 -1 35 C0.98 34.505 0.98 34.505 3 34 C3 23.77 3 13.54 3 3 C2.01 2.67 1.02 2.34 0 2 C0 1.34 0 0.68 0 0 Z " fill="#F1F4F7" transform="translate(483,227)"/>
<path d="M0 0 C0.33 0.66 0.66 1.32 1 2 C1.99 2.33 2.98 2.66 4 3 C2.68 3 1.36 3 0 3 C0.33 3.66 0.66 4.32 1 5 C4.27102265 5.68665066 7.52660748 6.21021453 10.83398438 6.6796875 C15.71108528 7.47227269 19.11507581 8.74148219 23 12 C23.75827344 16.17050393 23.49542722 18.17428797 21.3125 21.8125 C16.63516856 26.23700271 11.83750529 26.37429255 5.6640625 26.2578125 C2.21129541 25.92367375 -0.15388693 24.97038597 -3 23 C-5.14915785 19.77626323 -5.38286803 18.73296326 -5 15 C-4.34 14.34 -3.68 13.68 -3 13 C-0.375 13.375 -0.375 13.375 2 14 C2.1953125 16.05078125 2.390625 18.1015625 2.5859375 20.15234375 C2.72257813 20.76207031 2.85921875 21.37179687 3 22 C6.12706959 23.5635348 9.57982443 23.39958487 13 23 C13.99 22.34 14.98 21.68 16 21 C16.2502157 17.91634129 16.2502157 17.91634129 16 15 C11.13823418 13.52033214 6.35017722 12.47412323 1.33203125 11.66015625 C-1.30997992 10.91225024 -2.91554315 9.75861072 -5 8 C-4.64950425 4.75791433 -4.43778819 3.38472296 -1.9375 1.1875 C-1.298125 0.795625 -0.65875 0.40375 0 0 Z " fill="#ECEFF4" transform="translate(555,252)"/>
<path d="M0 0 C1.88138672 0.05414063 1.88138672 0.05414063 3.80078125 0.109375 C5.22970703 0.17898437 5.22970703 0.17898437 6.6875 0.25 C6.6875 2.89 6.6875 5.53 6.6875 8.25 C6.0275 8.25 5.3675 8.25 4.6875 8.25 C4.11 7.425 3.5325 6.6 2.9375 5.75 C0.88146698 2.89917869 0.88146698 2.89917869 -2.5625 2.9375 C-3.92375 3.0921875 -3.92375 3.0921875 -5.3125 3.25 C-5.6425 4.9 -5.9725 6.55 -6.3125 8.25 C-5.64863281 8.62511719 -4.98476563 9.00023437 -4.30078125 9.38671875 C5.7199575 15.19435858 5.7199575 15.19435858 8.6875 19.25 C9.46904305 23.6266411 9.20346953 25.46772362 6.75 29.1875 C2.64482243 31.95221143 -0.50322 31.85223542 -5.3125 31.25 C-6.00214844 31.05664062 -6.69179688 30.86328125 -7.40234375 30.6640625 C-9.51854703 30.03533368 -9.51854703 30.03533368 -12.3125 31.25 C-12.3125 28.28 -12.3125 25.31 -12.3125 22.25 C-11.6525 22.25 -10.9925 22.25 -10.3125 22.25 C-10.044375 22.86875 -9.77625 23.4875 -9.5 24.125 C-8.35693152 26.5495233 -8.35693152 26.5495233 -5.3125 28.25 C-2.98050612 28.32905064 -0.64417378 28.33798769 1.6875 28.25 C2.52689269 25.5107041 2.52689269 25.5107041 1.6875 22.25 C-0.67203657 20.44720801 -3.09896123 19.10612971 -5.734375 17.7421875 C-9.02386262 15.83827194 -11.80684673 14.03547914 -12.87890625 10.25 C-12.87761719 9.59 -12.87632812 8.93 -12.875 8.25 C-12.89691406 7.59 -12.91882813 6.93 -12.94140625 6.25 C-11.00573076 0.09431147 -5.59280842 -0.20907695 0 0 Z " fill="#F7F8FA" transform="translate(629.3125,233.75)"/>
<path d="M0 0 C3.5 1.0625 3.5 1.0625 6 3 C6.875 6.6875 6.875 6.6875 7 10 C5.35 10 3.7 10 2 10 C1.01 7.69 0.02 5.38 -1 3 C-3.37374861 2.66574265 -3.37374861 2.66574265 -6 3 C-8.68755298 5.48918597 -9.00411753 7.0352772 -9.43359375 10.71484375 C-9.45077386 12.12229158 -9.45161331 13.53001807 -9.4375 14.9375 C-9.45748047 15.64068359 -9.47746094 16.34386719 -9.49804688 17.06835938 C-9.4946258 20.71864675 -9.09595862 22.84483287 -7.1640625 25.96875 C-5.10814741 28.26579887 -5.10814741 28.26579887 -1.9375 28.5625 C1.1068967 28.29895827 1.1068967 28.29895827 2.6875 26 C3.120625 25.34 3.55375 24.68 4 24 C4.99 24 5.98 24 7 24 C5.75023244 27.65316671 5.32901247 28.78065836 2 31 C-2.53382371 31.75082431 -7.0674915 32.02269034 -11.20703125 29.83203125 C-15.46648679 26.34376134 -17.65897706 23.22077221 -18.24609375 17.67578125 C-18.53081986 11.90360645 -17.95212431 8.48619516 -14 4 C-9.78133053 -0.58026971 -5.89926305 -0.82942187 0 0 Z " fill="#F2F4F7" transform="translate(361,234)"/>
<path d="M0 0 C6.27 0 12.54 0 19 0 C18.67 0.99 18.34 1.98 18 3 C15.69 2.67 13.38 2.34 11 2 C11.33 12.89 11.66 23.78 12 35 C14.64 35.33 17.28 35.66 20 36 C20 36.33 20 36.66 20 37 C13.4 37 6.8 37 0 37 C0.99 36.01 1.98 35.02 3 34 C3.50858908 30.70728404 3.50858908 30.70728404 3.51171875 26.92578125 C3.53864555 25.90003242 3.53864555 25.90003242 3.56611633 24.8535614 C3.62022075 22.67327 3.6541134 20.49319744 3.6875 18.3125 C3.7206732 16.83265183 3.75516287 15.35283255 3.79101562 13.87304688 C3.87594524 10.24890831 3.94275635 6.62469348 4 3 C2.68 2.67 1.36 2.34 0 2 C0 1.34 0 0.68 0 0 Z " fill="#F8F9FB" transform="translate(275,227)"/>
<path d="M0 0 C0.02698189 1.62490954 0.04638757 3.24994633 0.0625 4.875 C0.07410156 5.77992188 0.08570313 6.68484375 0.09765625 7.6171875 C0 10 0 10 -1 12 C-0.34 12 0.32 12 1 12 C-0.50868362 15.01736724 -2.12970131 16.20606332 -5 18 C-9.33604885 18.78837252 -12.76334259 18.7540594 -16.5625 16.4375 C-18.58925458 13.00082919 -18.6198676 10.92582814 -18 7 C-13.8655916 1.31518846 -6.97177126 -2.39654637 0 0 Z " fill="#EFF2F6" transform="translate(456,247)"/>
<path d="M0 0 C0.02698189 1.62490954 0.04638757 3.24994633 0.0625 4.875 C0.07410156 5.77992188 0.08570313 6.68484375 0.09765625 7.6171875 C0 10 0 10 -1 12 C-0.34 12.33 0.32 12.66 1 13 C0.34 13 -0.32 13 -1 13 C-1.28875 13.639375 -1.5775 14.27875 -1.875 14.9375 C-3 17 -3 17 -5 18 C-9.28454373 18.50455052 -12.81954446 18.71978996 -16.5625 16.4375 C-18.58925458 13.00082919 -18.6198676 10.92582814 -18 7 C-13.8655916 1.31518846 -6.97177126 -2.39654637 0 0 Z " fill="#F0F3F6" transform="translate(390,247)"/>
<path d="M0 0 C0.33 12.21 0.66 24.42 1 37 C1.99 37.33 2.98 37.66 4 38 C4 38.99 4 39.98 4 41 C-0.95 41.495 -0.95 41.495 -6 42 C-6.33 30.12 -6.66 18.24 -7 6 C-7.99 5.67 -8.98 5.34 -10 5 C-9 2 -9 2 -6.6875 0.8125 C-4 0 -4 0 0 0 Z " fill="#FBFBFC" transform="translate(592,223)"/>
<path d="M0 0 C0 9.24 0 18.48 0 28 C1.32 28.33 2.64 28.66 4 29 C4 29.66 4 30.32 4 31 C-0.95 31 -5.9 31 -11 31 C-11 30.34 -11 29.68 -11 29 C-10.01 28.34 -9.02 27.68 -8 27 C-7.58390728 24.67699616 -7.58390728 24.67699616 -7.70703125 21.9921875 C-7.71669922 21.00605469 -7.72636719 20.01992187 -7.73632812 19.00390625 C-7.76146484 17.97136719 -7.78660156 16.93882812 -7.8125 15.875 C-7.82603516 14.83472656 -7.83957031 13.79445312 -7.85351562 12.72265625 C-7.88894772 10.14792373 -7.93834779 7.5742167 -8 5 C-8.99 4.67 -9.98 4.34 -11 4 C-11 3.34 -11 2.68 -11 2 C-6.9402698 0.48940272 -4.45389333 0 0 0 Z " fill="#F0F3F6" transform="translate(610,234)"/>
<path d="M0 0 C9.01162791 -0.60077519 9.01162791 -0.60077519 13.1875 1.9375 C15.41822794 5.706661 15.25628151 7.78140626 14.6875 12.01171875 C14 14 14 14 11 16 C7.31619572 16.26655603 3.69863419 16.08702669 0 16 C0 10.72 0 5.44 0 0 Z " fill="#1C447A" transform="translate(286,246)"/>
<path d="M0 0 C2.48257188 0.20441224 4.91001782 0.47574128 7.375 0.8125 C8.06078125 0.89564453 8.7465625 0.97878906 9.453125 1.06445312 C12.97412625 1.53369162 14.99575767 1.99717178 18 4 C18.4375 6.9375 18.4375 6.9375 18 10 C16.2151665 12.23104188 14.88467582 12.88785799 12.05859375 13.24609375 C8.19362666 13.3670964 6.26008638 13.17339092 3 11 C2.55308844 8.93733125 2.49915627 6.98087547 2.40625 4.875 C2.13880094 2.5900678 2.13880094 2.5900678 -1 1 C-0.67 0.67 -0.34 0.34 0 0 Z " fill="#2C5083" transform="translate(554,263)"/>
<path d="M0 0 C2.4375 2.125 2.4375 2.125 4 5 C4 8.50732933 3.6345092 10.2434698 1.375 12.9375 C-2.04750467 14.46862051 -4.41676602 13.8626304 -8 13 C-10 11 -10 11 -10.375 7.0625 C-10.29081697 4.1634469 -10.24906476 3.30654124 -8.375 1 C-5.26291151 -0.31035305 -3.34451564 -0.55741927 0 0 Z " fill="#294D81" transform="translate(448,293)"/>
<path d="M0 0 C2.375 1.625 2.375 1.625 4 4 C4.61195145 7.6717087 4.48706506 9.28813568 2.375 12.375 C0 14 0 14 -3 14.5625 C-6 14 -6 14 -8.4375 11.875 C-10 9 -10 9 -9.9375 5.875 C-8.12944906 0.33031044 -5.83514388 -0.83359198 0 0 Z " fill="#294E82" transform="translate(420,293)"/>
<path d="M0 0 C2.5 0.5 2.5 0.5 4.3125 2 C5.97805896 5.50643992 6.04536841 8.72724596 5.5 12.5 C4.3125 15.5 4.3125 15.5 2.5 17.5 C0 18.125 0 18.125 -2.5 17.5 C-5.06807522 14.66626183 -5.71502349 12.15869271 -5.875 8.4375 C-5.42340018 3.69570191 -4.95885696 0.99177139 0 0 Z " fill="#305486" transform="translate(563.5,235.5)"/>
<path d="M0 0 C7 0 7 0 9.4375 1.5625 C11.59460908 4.92759017 11.56988508 7.08204004 11 11 C7.83413846 14.79903385 5.2479719 14.25028973 0 15 C0 10.05 0 5.1 0 0 Z " fill="#1E457B" transform="translate(286,229)"/>
<path d="M0 0 C-0.66 0.66 -1.32 1.32 -2 2 C-4.67905902 6.01858853 -4.32182663 8.25305716 -4 13 C0.25731568 13.40749675 0.25731568 13.40749675 3.875 11.5 C4.24625 11.005 4.6175 10.51 5 10 C5 13 5 13 3.5625 15.1875 C-0.20168124 17.84996966 -3.52982967 17.64796964 -8 17 C-10.5625 16 -10.5625 16 -12 14 C-12.46035131 10.82869097 -12.69935284 9.01485721 -12 6 C-8.22183129 1.32700186 -5.89191545 -0.15505041 0 0 Z " fill="#F3F5F8" transform="translate(324,248)"/>
<path d="M0 0 C0.36022892 4.59291877 0.57869016 7.94978453 -1.6875 12.0625 C-4 14 -4 14 -6.625 14.4375 C-9 14 -9 14 -11 12 C-11.51156434 8.16326741 -11.30501126 6.47329333 -9.1875 3.1875 C-6.0778374 0.0778374 -4.40124636 0 0 0 Z " fill="#274C80" transform="translate(390,248)"/>
<path d="M0 0 C0.36022892 4.59291877 0.57869016 7.94978453 -1.6875 12.0625 C-4 14 -4 14 -6.625 14.4375 C-9 14 -9 14 -11 12 C-11.4375 9.1875 -11.4375 9.1875 -11 6 C-7.40568936 1.7435795 -5.60697557 0 0 0 Z " fill="#284D81" transform="translate(456,248)"/>
<path d="M0 0 C0.66 0.33 1.32 0.66 2 1 C3.70363822 1.22622081 5.41328701 1.40888473 7.125 1.5625 C8.03507812 1.64628906 8.94515625 1.73007812 9.8828125 1.81640625 C10.58148438 1.87699219 11.28015625 1.93757813 12 2 C12 2.66 12 3.32 12 4 C11.34 4 10.68 4 10 4 C9.75765625 4.64324219 9.5153125 5.28648437 9.265625 5.94921875 C8 8 8 8 6.046875 8.64453125 C1.50849808 8.97641936 -2.51661117 9.03462819 -7 8 C-7.33 6.68 -7.66 5.36 -8 4 C-8.66 4 -9.32 4 -10 4 C-10 3.34 -10 2.68 -10 2 C-9.04287109 1.90912109 -9.04287109 1.90912109 -8.06640625 1.81640625 C-6.82697266 1.69072266 -6.82697266 1.69072266 -5.5625 1.5625 C-4.73878906 1.48128906 -3.91507813 1.40007812 -3.06640625 1.31640625 C-1.01337975 1.21069185 -1.01337975 1.21069185 0 0 Z " fill="#EACF98" transform="translate(148,275)"/>
<path d="M0 0 C0.08153933 1.58246707 0.13943557 3.16616273 0.1875 4.75 C0.22230469 5.63171875 0.25710938 6.5134375 0.29296875 7.421875 C-0.05706768 10.5021956 -0.82580665 11.81571758 -3 14 C-6.125 14.3125 -6.125 14.3125 -9 14 C-10 13 -10 13 -10.4375 9.25 C-10.41471105 6.71586877 -10.30773795 5.42100958 -8.80078125 3.359375 C-5.68298443 0.62639441 -4.20052852 0 0 0 Z " fill="#22487D" transform="translate(329,248)"/>
<path d="M0 0 C1.8125 1.125 1.8125 1.125 3 3 C3.39769128 6.18153026 3.55198782 8.12844028 1.8125 10.875 C-0.65507108 12.40659584 -2.14519831 12.42822025 -5 12 C-6.8125 10.875 -6.8125 10.875 -8 9 C-8.39769128 5.81846974 -8.55198782 3.87155972 -6.8125 1.125 C-4.34492892 -0.40659584 -2.85480169 -0.42822025 0 0 Z " fill="#E1C997" transform="translate(237,245)"/>
<path d="M0 0 C1.8871875 0.0309375 1.8871875 0.0309375 3.8125 0.0625 C3.8125 0.7225 3.8125 1.3825 3.8125 2.0625 C2.1728125 2.371875 2.1728125 2.371875 0.5 2.6875 C-3.41699893 3.69163221 -3.41699893 3.69163221 -4.875 7.125 C-5.308125 8.094375 -5.74125 9.06375 -6.1875 10.0625 C-8.3125 11 -8.3125 11 -10.1875 11.0625 C-11.1875 10.0625 -11.1875 10.0625 -11.5 7.75 C-11.09206875 4.24179127 -9.90163795 3.23381036 -7.1875 1.0625 C-4.43671116 0.14557039 -2.82801087 -0.04636083 0 0 Z " fill="#EDF0F4" transform="translate(451.1875,233.9375)"/>
<path d="M0 0 C2.4375 2.125 2.4375 2.125 4 5 C4 8.50732933 3.6345092 10.2434698 1.375 12.9375 C-2.04750467 14.46862051 -4.41676602 13.8626304 -8 13 C-10 11 -10 11 -10.375 7.0625 C-10.29081697 4.1634469 -10.24906476 3.30654124 -8.375 1 C-5.26291151 -0.31035305 -3.34451564 -0.55741927 0 0 Z M-7.9375 3.125 C-9.53943488 5.95194391 -8.79584319 7.94926777 -8 11 C-6.82963695 12.39287806 -6.82963695 12.39287806 -3.5625 12.1875 C0.05032721 12.39564928 0.05032721 12.39564928 2 10 C1.90304884 5.65805064 1.90304884 5.65805064 0 2 C-4.15199221 1.63703121 -4.15199221 1.63703121 -7.9375 3.125 Z " fill="#D6DDE7" transform="translate(448,293)"/>
<path d="M0 0 C0 0.33 0 0.66 0 1 C-0.928125 1.20625 -1.85625 1.4125 -2.8125 1.625 C-6.85361762 3.36822721 -7.18713775 5.12706701 -9 9 C-11.125 9.9375 -11.125 9.9375 -13 10 C-14 9 -14 9 -14.4375 6.75 C-13.90193093 3.38356583 -12.5473414 1.92929806 -9.8671875 -0.12890625 C-6.44402544 -1.72590445 -3.59730557 -0.80629263 0 0 Z " fill="#E7EBF1" transform="translate(388,235)"/>
<path d="M0 0 C2.375 1.625 2.375 1.625 4 4 C4.61195145 7.6717087 4.48706506 9.28813568 2.375 12.375 C0 14 0 14 -3 14.5625 C-6 14 -6 14 -8.4375 11.875 C-10 9 -10 9 -9.9375 5.875 C-8.12944906 0.33031044 -5.83514388 -0.83359198 0 0 Z M-8 4 C-8.33333333 7 -8.33333333 7 -8 10 C-6.05541686 12.3721969 -6.05541686 12.3721969 -2.5 12.3125 C-1.345 12.209375 -0.19 12.10625 1 12 C3.29637779 9.24104365 3.29637779 9.24104365 2.75 6.4375 C2.16191948 3.84999433 2.16191948 3.84999433 0 2 C-4.50480277 1.4895042 -4.50480277 1.4895042 -8 4 Z " fill="#D8DFE8" transform="translate(420,293)"/>
<path d="M0 0 C0.66 0 1.32 0 2 0 C2.33 1.32 2.66 2.64 3 4 C4.98 2.68 6.96 1.36 9 0 C7.66666667 2.66666667 6.33333333 5.33333333 5 8 C5.66 8.61875 6.32 9.2375 7 9.875 C9 12 9 12 9 14 C6.53199953 12.84826645 4.95216435 11.95216435 3 10 C2.67 11.32 2.34 12.64 2 14 C1.34 14 0.68 14 0 14 C0 9.38 0 4.76 0 0 Z " fill="#CED6E2" transform="translate(465,293)"/>
<path d="M0 0 C2.64 0 5.28 0 8 0 C8 0.66 8 1.32 8 2 C6.02 2 4.04 2 2 2 C2 3.32 2 4.64 2 6 C3.65 6 5.3 6 7 6 C7 6.66 7 7.32 7 8 C5.35 8 3.7 8 2 8 C2 9.32 2 10.64 2 12 C3.65 12 5.3 12 7 12 C7.33 12.66 7.66 13.32 8 14 C5.36 14 2.72 14 0 14 C0 9.38 0 4.76 0 0 Z " fill="#CCD5E1" transform="translate(293,293)"/>
<path d="M0 0 C2.625 0.375 2.625 0.375 5 1 C5.33 2.32 5.66 3.64 6 5 C5.34 4.34 4.68 3.68 4 3 C1.93125966 2.3574765 1.93125966 2.3574765 0 2 C1.24546405 5.73639216 2.63404953 6.18756513 6 8 C5.67 9.65 5.34 11.3 5 13 C2.625 13.625 2.625 13.625 0 14 C-0.66 13.34 -1.32 12.68 -2 12 C-2 11.01 -2 10.02 -2 9 C-1.34 9 -0.68 9 0 9 C0 9.99 0 10.98 0 12 C1.32 12 2.64 12 4 12 C4 10.68 4 9.36 4 8 C2.35 7.67 0.7 7.34 -1 7 C-1.625 4.625 -1.625 4.625 -2 2 C-1.34 1.34 -0.68 0.68 0 0 Z " fill="#D1D9E4" transform="translate(348,293)"/>
<path d="M0 0 C0.66 0.99 1.32 1.98 2 3 C0.72125 2.95875 -0.5575 2.9175 -1.875 2.875 C-4.01871492 2.75787127 -4.01871492 2.75787127 -6 3 C-6.66 3.66 -7.32 4.32 -8 5 C-7.67801034 8.09926819 -7.67801034 8.09926819 -7 11 C-4.03 11 -1.06 11 2 11 C1.01 12.485 1.01 12.485 0 14 C-3.60745994 14.54896129 -5.33871982 14.45245486 -8.375 12.375 C-10.48706506 9.28813568 -10.61195145 7.6717087 -10 4 C-7.21979003 -0.0633838 -4.81401879 -0.73256808 0 0 Z " fill="#E2E7EE" transform="translate(395,293)"/>
<path d="M0 0 C4.62 0 9.24 0 14 0 C14 2.64 14 5.28 14 8 C13.34 8 12.68 8 12 8 C11.46375 7.21625 10.9275 6.4325 10.375 5.625 C7.12962729 2.03800911 4.69349778 1.86047459 0 1 C0 0.67 0 0.34 0 0 Z " fill="#E7EBF1" transform="translate(622,234)"/>
<path d="M0 0 C1.67542976 0.28604898 3.34385343 0.61781233 5 1 C5 2.65 5 4.3 5 6 C0.25 7.125 0.25 7.125 -2 6 C-1.125 1.125 -1.125 1.125 0 0 Z " fill="#EFF2F6" transform="translate(604,222)"/>
<path d="M0 0 C0.66 0 1.32 0 2 0 C2.268125 0.61875 2.53625 1.2375 2.8125 1.875 C3.95556848 4.2995233 3.95556848 4.2995233 7 6 C8.65549531 6.38499891 10.3222433 6.72793135 12 7 C8.27006781 9.48662146 7.23819267 8.79466113 3 8 C2.01 8.33 1.02 8.66 0 9 C0 6.03 0 3.06 0 0 Z " fill="#E6EAF0" transform="translate(617,256)"/>
<path d="M0 0 C2.64 0 5.28 0 8 0 C8 0.66 8 1.32 8 2 C7.34 2 6.68 2 6 2 C5.34 3.32 4.68 4.64 4 6 C2.35 6 0.7 6 -1 6 C-0.67 4.02 -0.34 2.04 0 0 Z " fill="#ADA58E" transform="translate(152,277)"/>
<path d="M0 0 C0.66 0 1.32 0 2 0 C2 3.3 2 6.6 2 10 C1.34 10 0.68 10 0 10 C-0.33 9.34 -0.66 8.68 -1 8 C-3.35599235 7.53248212 -3.35599235 7.53248212 -6.0625 7.375 C-6.98160156 7.30023438 -7.90070313 7.22546875 -8.84765625 7.1484375 C-9.55792969 7.09945312 -10.26820313 7.05046875 -11 7 C-11 6.67 -11 6.34 -11 6 C-9.741875 5.938125 -8.48375 5.87625 -7.1875 5.8125 C-4.99117898 5.6157972 -4.99117898 5.6157972 -3 5 C-1.08255407 2.55690423 -1.08255407 2.55690423 0 0 Z " fill="#DCE2EA" transform="translate(505,240)"/>
<path d="M0 0 C0.66 0 1.32 0 2 0 C2 3.96 2 7.92 2 12 C3.32 12 4.64 12 6 12 C6 12.66 6 13.32 6 14 C4.02 14 2.04 14 0 14 C0 9.38 0 4.76 0 0 Z " fill="#CBD4E0" transform="translate(274,293)"/>
<path d="M0 0 C1.65 0 3.3 0 5 0 C5.33 2.31 5.66 4.62 6 7 C4.02 7 2.04 7 0 7 C0 4.69 0 2.38 0 0 Z " fill="#526780" transform="translate(224,248)"/>
<path d="M0 0 C2.31 0 4.62 0 7 0 C7.33 1.98 7.66 3.96 8 6 C6.35 6 4.7 6 3 6 C2.67 4.68 2.34 3.36 2 2 C1.34 2 0.68 2 0 2 C0 1.34 0 0.68 0 0 Z " fill="#B2A98F" transform="translate(138,277)"/>
<path d="M0 0 C0.99 0 1.98 0 3 0 C2.05237764 3.27360452 1.55474945 4.67284007 -1.4375 6.4375 C-2.283125 6.623125 -3.12875 6.80875 -4 7 C-4.99 6.34 -5.98 5.68 -7 5 C-6.21625 4.731875 -5.4325 4.46375 -4.625 4.1875 C-1.71885077 3.15185568 -1.71885077 3.15185568 0 0 Z " fill="#DCE2EB" transform="translate(365,258)"/>
<path d="M0 0 C1.32 0.99 2.64 1.98 4 3 C3.67 3.99 3.34 4.98 3 6 C1.35 6 -0.3 6 -2 6 C-2.33 4.68 -2.66 3.36 -3 2 C-2.01 1.34 -1.02 0.68 0 0 Z " fill="#405B7D" transform="translate(234,248)"/>
<path d="M0 0 C0.66 0.33 1.32 0.66 2 1 C1.835 1.598125 1.67 2.19625 1.5 2.8125 C0.8885876 5.11344336 0.8885876 5.11344336 1 8 C1.66 8.33 2.32 8.66 3 9 C1.68 9 0.36 9 -1 9 C-2 8 -2 8 -2.1875 5.0625 C-2 2 -2 2 0 0 Z " fill="#F4D69A" transform="translate(231,246)"/>
<path d="M0 0 C0.969375 0.12375 1.93875 0.2475 2.9375 0.375 C3.5975 1.365 4.2575 2.355 4.9375 3.375 C1.27083333 3.375 -2.39583333 3.375 -6.0625 3.375 C-4.13380831 0.80341108 -3.26844961 0.40021832 0 0 Z " fill="#CAD3E0" transform="translate(392.0625,292.625)"/>
<path d="M0 0 C0.99 0 1.98 0 3 0 C1.60755361 2.78489278 -0.55991988 4.12301529 -3 6 C-3.99 5.01 -4.98 4.02 -6 3 C-5.195625 2.690625 -4.39125 2.38125 -3.5625 2.0625 C-1.10919595 1.23664655 -1.10919595 1.23664655 0 0 Z " fill="#D8DFE8" transform="translate(454,259)"/>
<path d="M0 0 C0.99 1.485 0.99 1.485 2 3 C3.32 2.01 4.64 1.02 6 0 C6.66 0.33 7.32 0.66 8 1 C5.47211993 3.79872437 3.79588866 5.45773019 0 6 C0 4.02 0 2.04 0 0 Z " fill="#C8D1DF" transform="translate(524,234)"/>
<path d="M0 0 C0.99 0.33 1.98 0.66 3 1 C2.34 1 1.68 1 1 1 C0.731875 1.639375 0.46375 2.27875 0.1875 2.9375 C-1 5 -1 5 -4 6 C-4.66 5.01 -5.32 4.02 -6 3 C-5.195625 2.690625 -4.39125 2.38125 -3.5625 2.0625 C-1.10919595 1.23664655 -1.10919595 1.23664655 0 0 Z " fill="#D7DEE7" transform="translate(388,259)"/>
<path d="M0 0 C3 1 3 1 4 3 C1.36 3.33 -1.28 3.66 -4 4 C-2.68 2.68 -1.36 1.36 0 0 Z " fill="#E6EAF0" transform="translate(657,234)"/>
</svg>
